<?xml version="1.0" encoding="utf-8"?>
<!-- Generator: Adobe Illustrator 22.1.0, SVG Export Plug-In . SVG Version: 6.00 Build 0)  -->
<svg version="1.1" xmlns="http://www.w3.org/2000/svg" xmlns:xlink="http://www.w3.org/1999/xlink" x="0px" y="0px"
	 viewBox="0 0 1000 1000" style="enable-background:new 0 0 1000 1000;" xml:space="preserve">
<style type="text/css">
	.st0{fill:#FFFFFF;}
	.st1{display:none;}
	.st2{display:inline;}
	.st3{stroke:#FFFFFF;stroke-width:15;stroke-miterlimit:10;}
	.st4{fill:none;stroke:#FFFFFF;stroke-width:15;stroke-miterlimit:10;}
	.st5{fill:none;stroke:#FFFFFF;stroke-width:13;stroke-miterlimit:10;}
	.st6{fill:none;stroke:#FFFFFF;stroke-width:8;stroke-miterlimit:10;}
</style>
<g id="Layer_1">
	<g>
		<g id="XMLID_212_">
			<polygon class="st0" points="343.4,759.8 361.9,690.4 268,665.3 244.8,625 285.1,601.7 378.6,626.8 484.3,135.3 570.9,37.6 
				597.1,165.5 442.9,644 536.4,669.1 559.7,709.4 519.4,732.6 425.5,707.5 406.9,776.8 366.6,800.1 			"/>
			<path d="M566.6,53.8l22.8,111.3l-156,484.1l98.1,26.3l18,31.1l-31.1,18l-98.1-26.3l-19.7,73.6l-31.1,18l-18-31.1l19.7-73.6
				L273,658.8l-18-31.1l31.1-18l98.1,26.3l106.9-497.3L566.6,53.8 M575.3,21.4l-19.9,22.4l-75.4,85l-2.6,2.9l-0.8,3.9L372.9,617.5
				L290,595.3l-6-1.6l-5.4,3.1l-31.1,18l-13,7.5l7.5,13l18,31.1l3.1,5.4l6,1.6l83.6,22.4l-15.8,59.1l-1.6,6l3.1,5.4l18,31.1l7.5,13
				l13-7.5l31.1-18l5.4-3.1l1.6-6l15.8-59.1l83.6,22.4l6,1.6l5.4-3.1l31.1-18l13-7.5l-7.5-13l-18-31.1l-3.1-5.4l-6-1.6l-82.9-22.2
				l151.2-469.1l1.2-3.7l-0.8-3.9L581.3,50.8L575.3,21.4L575.3,21.4z"/>
		</g>
		<polygon id="XMLID_211_" points="419.3,645.5 564.8,158.5 552.3,106.6 515.8,145.4 398.6,639.9 		"/>
		<g id="XMLID_210_">
			<polygon class="st0" points="401.9,835.3 556.1,356.8 462.6,331.7 439.3,291.5 479.6,268.2 573.5,293.3 592.1,224 632.4,200.7 
				655.7,241 637.1,310.4 731,335.5 754.2,375.8 714,399.1 620.4,374 514.7,865.5 428.1,963.2 			"/>
			<path d="M629.7,211l18,31.1l-19.7,73.6L726,342l18,31.1l-31.1,18l-98.1-26.3L507.8,862l-75.4,85l-22.8-111.3l156-484.1
				l-98.1-26.3l-18-31.1l31.1-18l98.1,26.3l19.7-73.6L629.7,211 M635.2,190.5l-13,7.5l-31.1,18l-5.4,3.1l-1.6,6l-15.8,59.1
				l-83.6-22.4l-6-1.6l-5.4,3.1l-31.1,18l-13,7.5l7.5,13l18,31.1l3.1,5.4l6,1.6l82.9,22.2L395.4,831.1l-1.2,3.7l0.8,3.9L417.7,950
				l6,29.4l19.9-22.4l75.4-85l2.6-2.9l0.8-3.9l103.6-481.8l82.9,22.2l6,1.6l5.4-3.1l31.1-18l13-7.5l-7.5-13l-18-31.1l-3.1-5.4
				l-6-1.6l-83.6-22.4l15.8-59.1l1.6-6l-3.1-5.4l-18-31.1L635.2,190.5L635.2,190.5z"/>
		</g>
		<polygon id="XMLID_209_" points="481.8,320.1 703.3,379.5 691.8,359.4 711.8,347.9 616.5,322.3 635.1,252.8 615.3,264.7 
			604,244.5 585.4,314 490.3,288.5 501.8,308.5 		"/>
		<polygon id="XMLID_208_" points="579.7,355.4 434.2,842.3 446.7,894.2 483.3,855.4 600.5,360.9 		"/>
		<g id="XMLID_49_">
			<path id="XMLID_51_" class="st0" d="M449.8,653.7c-4.1,9.3-8.8,18.4-12.1,28.2c-2.1,6.5-3.4,13.2-4.2,20l86,23l31.1-18l-18-31.1
				L449.8,653.7z"/>
			<path id="XMLID_50_" d="M545.7,668.3l-3.1-5.4l-6-1.6l-81.5-21.8c-1.4,4.9-3.3,9.5-5.3,14.2l82.9,22.2l18,31.1l-31.1,18l-86-23
				c-0.6,5-0.9,10.1-1.2,15.3l83.2,22.3l6,1.6l5.4-3.1l31.1-18l13-7.5l-7.5-13L545.7,668.3z"/>
		</g>
		<polygon id="XMLID_48_" points="517.2,680.7 295.7,621.3 307.2,641.4 287.2,653 382.5,678.5 363.9,748 383.8,736.1 395,756.3 
			413.6,686.8 508.7,712.3 497.2,692.3 		"/>
	</g>
</g>
<g id="Layer_2" class="st1">
	<g class="st2">
		<polygon id="XMLID_94_" class="st0" points="583.3,574.8 583.3,444.6 508.8,444.6 508.8,574.8 415.8,667.9 415.8,760.9 453,798.1 
			639.1,798.1 676.3,760.9 676.3,667.9 		"/>
		<polygon id="XMLID_93_" points="629.8,779.5 657.7,751.6 657.7,677.2 564.6,584.1 564.6,463.2 527.4,463.2 527.4,649.3 
			601.9,723.7 601.9,779.5 		"/>
		<polygon id="XMLID_92_" points="471.6,742.3 508.8,686.5 471.6,649.3 467.3,644.6 462.3,649.3 434.4,677.2 434.4,705.1 		"/>
		<polygon id="XMLID_91_" class="st0" points="480.9,574.8 407.2,649.3 397.2,659.1 397.2,770.2 434.4,807.4 434.4,891.2 378.6,947 
			322.7,891.2 322.7,807.4 360,770.2 360,649.3 434.4,574.8 		"/>
		<polygon id="XMLID_90_" points="378.6,919.1 415.8,881.9 415.8,816.7 378.6,779.5 341.3,816.7 341.3,881.9 		"/>
		<polygon id="XMLID_89_" points="564.6,779.5 564.6,742.3 546,723.7 508.8,779.5 		"/>
		<polygon id="XMLID_88_" class="st0" points="415.8,426 415.8,556.2 490.2,556.2 490.2,426 583.3,332.9 583.3,239.9 546,202.7 
			360,202.7 322.7,239.9 322.7,332.9 		"/>
		<polygon id="XMLID_87_" points="369.3,221.3 341.3,249.2 341.3,323.6 434.4,416.7 434.4,537.6 471.6,537.6 471.6,351.5 
			397.2,277.1 397.2,221.3 		"/>
		<polygon id="XMLID_86_" points="527.4,258.5 490.2,314.3 527.4,351.5 531.7,356.2 536.7,351.5 564.6,323.6 564.6,295.7 		"/>
		<polygon id="XMLID_85_" class="st0" points="518.1,426 591.9,351.5 601.9,341.7 601.9,230.6 564.6,193.4 564.6,109.6 620.5,53.8 
			676.3,109.6 676.3,193.4 639.1,230.6 639.1,351.5 564.6,426 		"/>
		<polygon id="XMLID_84_" points="620.5,81.7 583.3,118.9 583.3,184.1 620.5,221.3 657.7,184.1 657.7,118.9 		"/>
		<polygon id="XMLID_83_" points="434.4,221.3 434.4,258.5 453,277.1 490.2,221.3 		"/>
	</g>
</g>
<g id="Layer_3" class="st1">
	<g class="st2">
		<path id="XMLID_264_" class="st0" d="M624.6,107.4l-35.7,107.2l53.6,71.5l35.7-107.2L624.6,107.4z M634.2,235.4l-18.8-25.1
			l17.4-52.2l18.8,25.1L634.2,235.4z"/>
		<path id="XMLID_261_" class="st0" d="M642.4,339.6l-53.6-89.3v89.3l-35.7,71.5l-35.7-53.6L571,196.7l-125-142.9l35.7,142.9
			l-53.6,107.2L410.2,286l17.9-89.3l-53.6,71.5l-35.7,232.2l17.9,160.8l53.6,89.3v-89.3l35.7-71.5l35.7,53.6l-53.6,160.8l125,142.9
			l-35.7-142.9L571,696.9l17.9,17.9L571,804.1l53.6-71.5l35.7-232.2L642.4,339.6z M564.4,656.7l-72.3,144.6l13.9,55.8L455,798.7
			l53-158.9l-65-97.4l-56.6,113.2l-6.7-2.2l-16.9-152.5l71.8-156.8l72.3-144.6L493,143.7l51.1,58.4l-53,158.9l65,97.4l56.6-113.2
			l6.7,2.2l16.9,152.5L564.4,656.7z"/>
		<path id="XMLID_217_" class="st0" d="M356.6,714.8L320.9,822l53.6,71.5l35.7-107.2L356.6,714.8z M366.3,842.8l-18.8-25.1
			l17.4-52.2l18.8,25.1L366.3,842.8z"/>
		<polygon id="XMLID_213_" points="493,143.7 544.1,202.1 491.1,361 556.1,458.5 612.7,345.3 619.3,347.4 636.3,499.9 564.4,656.7 
			492.1,801.3 506.1,857.1 455,798.7 507.9,639.8 443,542.4 386.4,655.6 379.7,653.4 362.8,500.9 434.6,344.1 506.9,199.5 		"/>
		<polygon id="XMLID_279_" points="632.8,158.1 615.4,210.3 634.2,235.4 651.6,183.2 		"/>
		<polygon id="XMLID_280_" points="364.8,765.4 347.4,817.6 366.3,842.8 383.7,790.5 		"/>
	</g>
</g>
<g id="Layer_4" class="st1">
	<g class="st2">
		<polygon id="XMLID_58_" class="st3" points="336.4,105.6 370.8,363.1 576.8,534.7 679.8,483.2 714.1,277.3 611.1,174.3 
			662.6,122.8 611.1,71.3 559.6,88.4 525.3,54.1 490.9,54.1 490.9,71.3 473.8,71.3 456.6,54.1 439.4,54.1 405.1,157.1 387.9,105.6 
					"/>
		<line id="XMLID_57_" class="st4" x1="576.8" y1="328.8" x2="714.1" y2="277.3"/>
		<polyline id="XMLID_56_" class="st4" points="370.8,363.1 422.3,225.8 508.1,122.8 559.6,88.4 		"/>
		<line id="XMLID_55_" class="st5" x1="439.4" y1="260.1" x2="439.4" y2="260.1"/>
		<path id="XMLID_54_" class="st5" d="M490.9,277.3"/>
		<polyline id="XMLID_53_" class="st4" points="662.6,122.8 593.9,191.4 559.6,260.1 559.6,260.1 593.9,363.1 576.8,397.4 
			593.9,363.1 		"/>
		<polygon id="XMLID_52_" class="st0" points="439.4,247.7 469.7,237.2 439.4,260.1 		"/>
		<polygon id="XMLID_47_" class="st0" points="490.9,277.3 506.5,260.1 478.3,273.1 		"/>
		<polygon id="XMLID_46_" class="st0" points="490.9,277.3 498.7,294.4 484,281.5 		"/>
		<polygon id="XMLID_45_" class="st0" points="587.1,388.3 596.8,419.2 576.8,397.4 		"/>
		<polygon id="XMLID_44_" class="st0" points="593.9,373.3 593.9,359.9 559.6,358.8 		"/>
		<polygon id="XMLID_43_" class="st0" points="573.5,387.3 576.8,397.4 548.6,427.2 		"/>
		<polyline id="XMLID_42_" class="st4" points="405.1,157.1 422.3,225.8 439.4,260.1 490.9,277.3 		"/>
		<polygon id="XMLID_41_" class="st3" points="662.6,895.2 628.3,637.7 422.3,466.1 319.3,517.6 284.9,723.6 387.9,826.6 
			336.4,878.1 387.9,929.6 439.4,912.4 473.8,946.7 508.1,946.7 508.1,929.6 525.3,929.6 542.4,946.7 559.6,946.7 593.9,843.7 
			611.1,895.2 		"/>
		<line id="XMLID_40_" class="st4" x1="422.3" y1="672.1" x2="284.9" y2="723.6"/>
		<polyline id="XMLID_39_" class="st4" points="628.3,637.7 576.8,775.1 490.9,878.1 439.4,912.4 		"/>
		<line id="XMLID_38_" class="st6" x1="559.6" y1="740.7" x2="559.6" y2="740.7"/>
		<path id="XMLID_37_" class="st6" d="M508.1,723.6"/>
		<polyline id="XMLID_36_" class="st4" points="336.4,878.1 405.1,809.4 439.4,740.7 439.4,740.7 405.1,637.7 422.3,603.4 
			405.1,637.7 		"/>
		<polygon id="XMLID_35_" class="st0" points="559.6,753.1 529.3,763.6 559.6,740.7 		"/>
		<polygon id="XMLID_34_" class="st0" points="508.1,723.6 492.5,740.7 520.7,727.8 		"/>
		<polygon id="XMLID_33_" class="st0" points="508.1,723.6 500.3,706.4 515,719.3 		"/>
		<polygon id="XMLID_32_" class="st0" points="411.9,612.5 402.2,581.6 422.3,603.4 		"/>
		<polygon id="XMLID_31_" class="st0" points="405.1,627.5 405.1,640.9 439.4,642 		"/>
		<polygon id="XMLID_30_" class="st0" points="425.4,613.5 422.3,603.4 450.4,573.6 		"/>
		<polyline id="XMLID_29_" class="st4" points="593.9,843.7 576.8,775.1 559.6,740.7 508.1,723.6 		"/>
	</g>
</g>
</svg>
