<?xml version="1.0" encoding="utf-8"?>
<!-- Generator: Adobe Illustrator 22.1.0, SVG Export Plug-In . SVG Version: 6.00 Build 0)  -->
<svg version="1.1" xmlns="http://www.w3.org/2000/svg" xmlns:xlink="http://www.w3.org/1999/xlink" x="0px" y="0px"
	 viewBox="0 0 1000 1000" style="enable-background:new 0 0 1000 1000;" xml:space="preserve">
<style type="text/css">
	.st0{fill:#FFFFFF;}
	.st1{display:none;}
	.st2{display:inline;}
</style>
<g id="Layer_1">
	<path class="st0" d="M601.2,502.6c-9.5,11.7-18.8,23.2-28.1,34.7c-9.3,11.5-18.7,22.9-27.8,34.5c-2.2,2.8-4.4,4-7.9,3.9
		c-24.4-0.1-48.7,0.1-73.1-0.2c-2.7,0-6.3-1.6-8-3.7c-13.8-16.7-27.2-33.7-40.7-50.6c-4-5.1-8-10.2-12.2-15.1
		c-2.1-2.5-2.1-4.2,0-6.8c15.3-18.6,30.4-37.3,45.5-56c2.6-3.1,5.6-6,7.5-9.5c2.4-4.5,5.7-5.2,10.3-5.2c18.9,0,37.7-0.5,56.6-0.8
		c4.7-0.1,9.4-0.9,14.1-0.8c1.8,0,4.2,1.1,5.3,2.5c14.5,17.9,28.7,36.1,43.1,54.1C590.8,489.9,596,496.1,601.2,502.6z M498.6,434.7
		c-12.8,22.6-25.3,44.5-37.6,66.6c-0.6,1.1-0.4,3.4,0.3,4.6c8.2,13.3,16.5,26.6,24.8,39.8c4.4,7.1,8.8,14.2,13.2,21.4
		c0.4-0.3,0.7-0.5,0.9-0.8c13-20.1,26-40.1,38.9-60.3c0.8-1.2,0.4-3.8-0.4-5.1c-8-13.4-16.2-26.8-24.3-40.1
		C509.3,452.1,504.1,443.6,498.6,434.7z"/>
	<path class="st0" d="M356.5,917.9c-6.9-8.1-13.8-16.3-20.8-24.4c-31.1-36.7-62.2-73.4-93.3-110.1c-3.5-4.2-6.7-8.8-10.6-12.5
		c-6.4-6-8.2-12.8-7.7-21.6c2-32.4,3.1-64.8,4.6-97.3c0-0.3,0.2-0.6,0.7-1.8c1.4,1.7,2.6,3,3.6,4.4c17.6,24.5,35.7,48.6,52.5,73.7
		c6.1,9.2,9.6,20.3,13.5,30.8c14.2,37.5,28.2,75.1,42.2,112.7c5.4,14.5,10.4,29.2,15.6,43.9c0.2,0.6,0.3,1.2,0.5,1.8
		C357.1,917.5,356.8,917.7,356.5,917.9z"/>
	<path class="st0" d="M643.2,84.1c11.5,13.6,22.9,27.1,34.4,40.7c31.4,37,62.7,74,94.2,110.9c3.4,3.9,3.8,7.8,3.5,12.6
		c-1.7,33.3-3.1,66.7-4.7,100c0,0.9-0.1,1.7-0.3,4.1c-3.9-5.4-7.2-9.7-10.4-14.2c-15.2-21-30.7-41.9-45.3-63.3
		c-5.1-7.6-8.5-16.6-11.7-25.2c-20.1-54-40-108-60-162c-0.3-0.9-0.6-1.9-0.9-2.9C642.5,84.5,642.8,84.3,643.2,84.1z"/>
	<path class="st0" d="M540.2,885.6c0-8.1,0-15.2,0-23c-7.8-0.5-15.2-1-23.4-1.5c6-7,11.5-13.5,17.1-20c9.7-11.2,19.9-22,29-33.6
		c7-9,16.8-13.8,25.9-19.7c30-19.5,60.3-38.6,90.5-57.8c2.1-1.4,4.4-2.6,7.6-4.6c-4.7,12.7-9,24.2-13.3,35.7
		c-7.8,20.8-15.5,41.7-23.4,62.4c-0.9,2.3-2.4,5-4.4,6.1C611,848.2,576.1,866.6,540.2,885.6z"/>
	<path class="st0" d="M313.3,272.8c12.7-34.2,24.9-66.9,37.2-99.6c0.7-1.9,2.5-4,4.3-4.9c34.4-18.3,68.8-36.5,103.3-54.7
		c0.4-0.2,1-0.2,2.1-0.4c0,7.5,0,14.8,0,22.6c7.8,0.4,15.1,0.7,23.4,1.1c-4.6,5.4-8.5,10.2-12.6,14.9c-12.1,14-23.7,28.5-36.5,41.8
		c-6.5,6.7-15,11.6-22.9,16.7c-30.1,19.4-60.3,38.6-90.5,57.8C318.9,269.5,316.7,270.8,313.3,272.8z"/>
	<path class="st0" d="M571.8,791.6c6.1-53.7,12.1-106.2,18.2-159.9c31.1,30.2,61.4,59.6,92,89.4
		C645.3,744.5,609.1,767.7,571.8,791.6z"/>
	<path class="st0" d="M410.2,366.5c-31.1-30.3-61.3-59.6-92-89.4c36.6-23.4,72.8-46.6,110.1-70.5
		C422.3,260.1,416.3,312.6,410.2,366.5z"/>
	<path class="st0" d="M767.2,361.8c-14,24.6-27.9,47.8-40.3,71.7c-5.1,9.7-11.5,13.1-21.9,14.2c-27.7,3.1-55.3,7.6-82.9,11.5
		c-1.7,0.2-3.5,0.3-6.2,0.6c1.1-2.1,1.8-3.6,2.7-4.9c5.9-9,11.7-18.1,17.8-26.9c1.4-2.1,3.4-4.1,5.6-5.2
		c40.4-19.9,80.8-39.6,121.3-59.3C764.1,363,765,362.7,767.2,361.8z"/>
	<path class="st0" d="M384,541.9c-6.4,9.9-12.7,18.7-17.9,28c-3.7,6.5-9.3,9.6-15.5,12.6c-38.5,18.7-77,37.5-115.5,56.3
		c-0.5,0.2-1,0.4-2.5,1c2.5-4.6,4.6-8.5,6.8-12.4c12.5-22.1,25-44.2,37.5-66.2c1.8-3.2,3.8-5.3,7.9-5.8c30.8-4.1,61.5-8.5,92.2-12.9
		C378.9,542.3,380.8,542.2,384,541.9z"/>
	<path class="st0" d="M460.1,70.9c18.2,9.6,36.4,19.1,54.6,28.7c37.1,19.6,74.2,39.3,111.3,58.9c0.6,0.3,1.2,0.8,1.9,1
		c14.1,4.9,21.2,15.1,26,29.1c9.9,28.3,21.8,55.9,32.4,83.9c1.4,3.7,1.4,8.4,0.8,12.4c-4,28.2-8.2,56.5-12.5,84.7
		c-0.2,1.5-1.1,3.6-2.3,4.1c-28.9,13.1-57.9,26.1-86.8,39.1c-0.5,0.2-1,0.2-1.9,0.4c-0.3-4.5,0.3-7.8,5.2-10.1
		c24.3-11.2,48.4-23,72.8-34.2c4.8-2.2,7.1-4.9,7.8-10.4c3.2-25.1,6.9-50.2,10.6-76.7c-31,29.2-61,57.4-91.8,86.5
		c-0.7-7-0.9-11.9,4.5-16.8c27-24.3,53.4-49.1,80.1-73.7c0.4-0.3,0.6-0.8,1.2-1.6c-9.2-5.5-18.2-10.9-27.3-16.3
		c-23-13.8-46.2-27.3-68.9-41.5c-3.3-2.1-4.8-7.2-7.1-11c0.5-0.5,0.9-0.9,1.4-1.4c35.1,21.3,70.2,42.5,106.5,64.5
		c-3-7.9-5.5-14.7-8.1-21.5c-8.4-22.1-17-44.1-25.3-66.2c-1.8-4.7-4.4-7.8-9-10.3c-29.3-15.8-58.5-32.1-87.7-48.2
		c-25.2-13.8-50.6-27.4-75.7-41.4c-4.9-2.8-9.1-7-13.6-10.6C459.6,71.8,459.8,71.3,460.1,70.9z"/>
	<path class="st0" d="M321.6,715c29.9-28.2,59.8-56.3,90.4-85.2c0.6,7.1,0.9,12-4.6,16.9c-26.8,24.1-53.1,48.9-79.6,73.4
		c-0.5,0.4-0.9,1-1.7,1.8c10.9,6.5,21.4,12.9,32,19.2c21.2,12.7,42.3,25.4,63.7,37.9c5.3,3.1,5.2,8.2,7.5,13.9
		c-36.2-21.9-71.2-43.2-107.6-65.2c1.5,4,2.5,6.8,3.5,9.6c10.4,27,20.7,54.1,31.3,81c1,2.5,3.4,4.9,5.8,6.2
		c29.3,16.3,58.7,32.5,88.1,48.6c25.7,14.1,51.5,27.9,77.1,42.2c4.9,2.8,9.1,7,13.6,10.5c-0.3,0.4-0.6,0.9-0.8,1.3
		c-8-4.2-16-8.4-24-12.6c-47.4-25-94.8-50.1-142.2-75.1c-3.4-1.8-6.6-4.2-10.3-5.5c-7.6-2.7-10.9-8.4-13.6-15.5
		c-11.6-30.1-23.7-60.1-35.2-90.2c-1.8-4.7-2.2-10.4-1.6-15.4c3.6-26.7,7.8-53.3,11.5-80c0.7-5.3,2.4-8.4,7.7-10.7
		c26.9-11.7,53.4-23.9,80.1-36c1.3-0.6,2.6-1,4.2-1.5c0.2,5.3-1.2,8.6-6.2,10.9c-23.7,10.9-47.1,22.4-70.8,33.3
		c-5.2,2.4-8.3,4.9-9,11.2c-3,24.8-6.7,49.5-10.1,74.2C320.8,714.5,321.2,714.8,321.6,715z"/>
	<path class="st0" d="M686.9,715.8c-26.9-26.5-52.2-52.8-79.3-77.3c-13.5-12.2-20.5-26-22.1-43.5c-0.3-3.6-1.4-7.2-2.3-11.6
		c10.1,4.6,19.4,8.7,28.6,13c19.5,9.1,38.9,18.4,58.5,27.4c2.8,1.3,4.4,2.7,4.9,6c3.8,27.6,7.8,55.1,11.7,82.7
		C687,713.3,686.9,714,686.9,715.8z"/>
	<path class="st0" d="M416.7,414.6c-9.5-4.3-18.3-8.2-27-12.3c-20.1-9.4-40.3-18.9-60.3-28.5c-1.8-0.9-3.9-3.2-4.2-5.1
		c-4.1-27.4-7.9-54.8-11.8-82.2c-0.1-0.9,0-1.9,0-3.9c10.6,10.4,20.6,20.1,30.5,29.8c20.9,20.5,41.8,41,62.6,61.6
		c1.7,1.7,2.9,4.3,3.4,6.7c2.2,9.3,4,18.6,5.9,28C416.1,410.3,416.3,412,416.7,414.6z"/>
	<path class="st0" d="M465.4,832c11.8,0.6,22.3,1,33.1,1.6c0,8.8,0.2,17.4-0.1,25.9c-0.4,11-0.3,11.1,11,11.3
		c6.7,0.1,13.4,0.8,20,1.2c0.5,0,0.9,0.4,2.2,1c0,9.7,0,19.7,0,29.7c0,6.8,0.4,7.2,7,7.6c7.6,0.4,15.1,0.7,22.7,1.4
		c1.5,0.1,3.9,2.1,3.9,3.2c0.3,11.4,0.2,22.7,0.2,34.9c-2.3-2.7-4.4-5.2-6.5-7.7c-22.1-26.1-44.3-52.3-66.4-78.4
		c-19.7-23.1-39.4-46.1-59-69.4c-1.6-1.9-2-5-2.3-7.6c-2.5-22.5-4.8-44.9-7.1-67.4c-3-29.3-6.7-58.6-8.6-88
		c-0.8-12.9,2.2-25.9,3.5-38.9c0.5-4.5,1-8.9,1.7-14.9c6.9,10.3,13,19.5,19,28.7c0.5,0.8,0.3,2.9-0.4,3.6
		c-7.2,7.9-14.6,15.7-22.2,23.8c7,6.7,15.2,14.4,23.4,22.2c-6.5,10.3-12.7,20.3-19.1,30.5c8.4,7.7,16.7,15.3,25.3,23.2
		c-5.7,8.4-11.3,17-17.3,25.2c-2.2,3-1.7,4.8,0.8,7.1c6.3,5.7,12.3,11.6,18.6,17.2c2.6,2.3,3.2,3.8,0.9,6.9c-5,7-9.4,14.4-14,21.8
		c-0.8,1.3-1.3,2.8-2.2,4.7c10.6,0.7,20.7,1.4,31.7,2.2C465.4,807.1,465.4,819.2,465.4,832z"/>
	<path class="st0" d="M603.9,478.3c3.1-6.6,6.3-10.9,14.9-11.8c32.2-3.1,64.2-7.4,96.3-11.2c3.5-0.4,5.5-1.8,7.4-4.9
		c17.1-28.9,34.5-57.5,51.3-86.5c2.2-3.8,2.3-9.1,2.5-13.7c1.7-35.6,3.1-71.3,4.7-106.9c0.2-4.1-0.9-7.2-3.7-10.5
		c-27.7-32.5-55.1-65.3-82.8-97.8c-12.5-14.8-25.4-29.2-38.1-43.8c-6.6-7.6-13.5-15-19.2-23.3c-3.6-5.2-5.1-11.8-7.5-17.7
		c0.4-0.2,0.8-0.4,1.1-0.6c7.6,8.8,15.1,17.5,22.7,26.3c22,25.4,44,50.8,66,76.2c22.1,25.5,44.1,51,66,76.6c1.5,1.8,2.6,4.7,2.6,7
		c-1.1,35.7-3.5,71.3-3.1,106.9c0.2,18-7.3,31.6-15.8,45.8c-14.6,24.4-28.8,48.9-43.4,73.3c-1.1,1.8-3.6,3.6-5.6,3.8
		c-38.4,4.4-76.8,8.6-115.3,12.9C604.8,478.8,604.7,478.6,603.9,478.3z"/>
	<path class="st0" d="M368.7,952c-5.7-6.6-11.5-13.1-17.2-19.7c-24.1-27.8-48.1-55.7-72.2-83.5c-21.9-25.4-43.9-50.7-65.7-76.3
		c-1.5-1.8-2.4-4.7-2.3-7.1c1-35.1,3.4-70.3,3-105.4c-0.2-18.9,7.6-33.3,16.6-48.3c14.2-23.6,28.1-47.3,41.9-71.1
		c1.9-3.3,4-4.8,7.7-5.1c27.4-2.9,54.8-5.9,82.1-8.9c9.5-1,18.9-2.2,28.4-3.2c1.3-0.1,2.7-0.2,4.7-0.3c-3.4,6.5-6.1,11.2-14.5,12
		c-32.5,3.2-64.9,7.4-97.3,11.5c-2.2,0.3-5,1.9-6.2,3.8c-17.6,29.1-35.1,58.4-52.5,87.6c-1.1,1.9-1.7,4.3-1.8,6.5
		c-1.7,37.7-3.3,75.5-5,113.2c-0.2,4.5,1,7.9,4,11.4c27.6,32.4,54.9,65,82.4,97.4c12.4,14.6,25.2,28.9,37.7,43.5
		c6.7,7.7,13.7,15.3,19.5,23.6c3.6,5.2,5.1,11.8,7.5,17.7C369.4,951.6,369.1,951.8,368.7,952z"/>
	<path class="st0" d="M241,349c20.2,9.1,39.7,17.9,59.3,26.7c7.1,3.2,7.6,3.8,7.5,12.8c-22.9-10.6-45.7-21.2-68.4-31.7
		c-0.3,0.2-0.6,0.5-0.9,0.7c3.8,7,7.7,13.9,11.5,20.9c9.7,17.6,19.4,35.1,29,52.7c1.9,3.4,4.1,5,8.1,5.6
		c29.2,4.1,58.3,8.6,87.5,12.5c5.9,0.8,7.7,4.5,10.1,9.5c-10.5-1.3-20.2-2.5-30-3.8c-24.3-3.1-48.7-6.2-73-9.4
		c-1.3-0.2-3.1-1-3.7-2.1c-15.8-28.1-31.5-56.3-47.3-84.4c-4.4-7.9-3-16.6-3.3-24.9c-0.8-30.9-1.1-61.8-1.4-92.6c0-3,1.3-6.6,3.2-9
		c34.7-41.4,69.5-82.7,104.4-123.9c8.6-10.2,17.4-20.3,26.5-30.9c-1.6,11.7-9.8,18.6-16.2,26.6c-18.5,22.9-37.3,45.7-56,68.5
		c-17.7,21.6-35.5,43-53,64.7c-1.9,2.4-3.3,5.9-3.3,8.9c0.6,31.8,1.6,63.5,2.5,95.3c0,0.5,0.3,0.9,0.8,2c18.1-24.1,36-47.8,54-71.7
		c0.3,2.8,0.9,5.2,0.6,7.5c-0.5,2.9-1.1,6.2-2.8,8.5c-14.5,19.4-29.3,38.5-43.9,57.7C242.4,346.7,241.9,347.7,241,349z"/>
	<path class="st0" d="M761.7,645.6c-5.7-10.3-10.6-19.4-15.6-28.4c-8.3-15.1-17-30-25-45.3c-2.6-4.9-5.9-6.6-11-7.3
		c-28.7-4-57.2-8.4-85.9-12.2c-5.6-0.7-6.7-4.7-10-9.3c4,0.4,6.8,0.6,9.6,1c31.1,4,62.3,8,93.4,12.2c1.6,0.2,3.7,1.7,4.5,3.2
		c15.3,27,30.2,54.1,45.7,81c5.2,9,4,18.5,4.2,27.8c0.9,30.3,1,60.7,1.7,91c0.1,4.2-1,7.3-3.7,10.5c-34.6,40.8-69,81.7-103.5,122.6
		c-8,9.4-16,18.9-24,28.3c-0.9,1-1.9,1.8-3.1,3c1.7-11.3,9.7-18.2,16-26c21.7-26.7,43.5-53.3,65.4-80c14.3-17.5,28.5-35,43.1-52.3
		c3.1-3.7,4.3-7.3,4.2-11.9c-0.9-27-1.7-54-2.4-80.9c-0.1-4.5,0-9,0-13.5c-0.5-0.1-1-0.3-1.4-0.4c-17.7,23.5-35.4,47-53.5,71.1
		c-0.2-1.1-0.2-1.5-0.3-1.9c-2.8-10,3.9-16.2,9.1-23c12.5-16.2,24.9-32.5,37.3-48.8c0.6-0.8,1.1-1.7,1.9-3.1
		c-13.2-6-26.2-11.8-39.2-17.7c-8-3.6-16.3-6.7-23.9-11.1c-2.6-1.5-3.3-6.4-4.9-9.8c0.4-0.3,0.9-0.6,1.3-0.9
		C714.6,623.8,737.5,634.4,761.7,645.6z"/>
	<path class="st0" d="M371.2,47c-4.4,8.4-8,17.3-13.4,25c-4.5,6.5-11.2,11.5-16.4,17.5c-34.1,39.5-68.1,79.2-102.1,118.7
		c-5.5,6.4-11.1,12.8-16.8,19c-2.5,2.8-3.6,5.6-3.5,9.5c1,38.6,1.8,77.2,2.9,115.8c0.1,3.8,1.2,8.1,3.1,11.4
		c17.1,29.3,34.5,58.5,51.8,87.7c1.7,2.8,3.4,4.5,7.2,4.9c34.7,3.7,69.4,7.8,104.1,11.7c6.2,0.7,6,6.5,8.6,10.5c-9-1-18.1-2-27.1-3
		c-29.5-3.3-58.9-6.8-88.4-9.9c-5.2-0.5-8.3-2.4-10.9-7.1c-17.9-31.8-36.2-63.4-54.1-95.2c-1.8-3.2-2.2-7.4-2.3-11.1
		c-1-39.5-1.8-79.1-2.4-118.6c0-2.8,1.4-6.2,3.3-8.3c29.9-35,60-69.9,90.1-104.8c21.2-24.6,42.5-49.1,63.7-73.7
		c0.3-0.3,0.8-0.4,1.2-0.6C370.2,46.5,370.7,46.8,371.2,47z"/>
	<path class="st0" d="M601.7,522.8c19.3,2.2,37.1,4.3,55,6.3c20.7,2.3,41.4,4.7,62.1,6.9c4.8,0.5,7.6,2.1,10.2,6.6
		c17.7,31.7,36,63.1,53.8,94.8c1.9,3.5,2.6,8,2.7,12c0.9,33.9,1.6,67.8,2.4,101.7c0,0.9-0.1,1.8,0.1,2.6
		c3.2,13.9-3.4,23.7-12.3,33.7c-42,47.9-83.4,96.4-125,144.7c-6.8,7.9-13.7,15.6-20.7,23.7c1.1-11.4,7.3-19.5,14.3-27.5
		c41.1-47.5,82-95.1,123-142.7c3.6-4.1,7.4-8.1,10.7-12.5c1.5-2,2.6-5,2.5-7.5c-0.7-39-1.5-77.9-2.6-116.9c-0.1-3.7-1.2-7.7-3-10.8
		c-17.2-29.3-34.6-58.5-51.9-87.7c-1.5-2.5-2.8-4.6-6.6-5c-34.4-3.7-68.7-8-103.1-11.6C606.2,533,605.2,528,601.7,522.8z"/>
	<path class="st0" d="M437.8,44.1c21.6,11.1,42.2,21.7,62.9,32.4c43,22.2,86,44.3,128.9,66.5c8.2,4.2,16.4,8.3,24.4,12.7
		c1.8,1,3.6,2.9,4.4,4.9c10.8,27.4,21.4,54.9,32,82.4c4.1,10.5,8.2,21,12.1,31.6c0.8,2.2,1.2,4.9,0.8,7.2
		c-5.4,34.5-10.9,69-16.7,103.4c-0.3,1.9-2.9,4.2-5,5c-21.8,9.5-43.8,18.8-65.7,28.2c-12,5.1-23.9,10.3-36,15.5
		c-0.6-7.8,0.3-9.5,6.7-12.3c29.1-12.6,58.2-25.2,87.4-37.7c2.7-1.2,4.1-2.6,4.7-5.5c5.6-32.2,11.4-64.4,16.9-96.6
		c0.4-2.2-0.4-4.8-1.2-7c-14-36.2-28-72.3-42.2-108.4c-1-2.5-3.2-5.1-5.6-6.3c-27.1-14-54.4-27.5-81.5-41.5
		c-32.9-17-65.5-34.3-98.3-51.5c-2.2-1.1-4.3-2.5-6.5-3.4C450.9,59.9,444,53.3,437.8,44.1z"/>
	<path class="st0" d="M420.3,564.2c0.4,6.6-1.4,10.3-7.4,12.9c-29.1,12.2-58,24.9-87,37.3c-2.8,1.2-3.9,2.7-4.5,5.6
		c-5.5,31.5-11.3,63-16.7,94.6c-0.5,2.8-0.1,6,0.9,8.6c14.1,36.7,28.3,73.3,42.8,109.9c0.8,2.1,3.2,4.2,5.3,5.3
		c26.8,13.8,53.8,27.1,80.6,41c38.3,19.9,76.6,39.9,114.6,60.3c5.4,2.9,9.5,8.2,14.2,12.4c-0.5,0.6-1,1.2-1.5,1.7
		c-9.3-4.8-18.7-9.5-28-14.3c-32.3-16.6-64.6-33.3-96.9-50c-30.3-15.6-60.6-31.2-90.7-47c-1.9-1-3.7-3.3-4.5-5.4
		c-10.6-26.9-21-53.9-31.5-80.9c-4.1-10.5-8.5-21-12-31.7c-1.3-4.1-1.1-9-0.4-13.3c5.1-32.8,10.4-65.5,15.9-98.2
		c0.3-1.7,2.4-3.8,4.2-4.6c22-9.6,44.1-19,66.2-28.4C395.8,574.7,407.8,569.6,420.3,564.2z"/>
	<path class="st0" d="M540.7,900c-1.8-5.6,0-8.6,5.2-11.3c34.3-17.7,68.5-35.8,102.6-53.9c2.2-1.2,4.4-3.6,5.3-6
		c11.7-30.6,23.2-61.4,34.7-92.1c0.1-0.2,0.1-0.4,0.1-0.5c6.9-11.7,5.8-23.9,3.4-36.7c-4.9-26-8.8-52.1-13.3-78.2
		c-0.3-1.8-2.1-4.1-3.8-4.9c-29.1-13.1-58.2-26.3-87.6-38.6c-7.3-3-6.7-8.2-8.1-14.5c8.4,3.6,16.1,6.8,23.8,10.1
		c25.8,11,51.5,22.1,77.4,33c4.3,1.8,6.3,4.2,7,9.1c5,32.9,10.5,65.8,15.7,98.8c0.5,3,0.3,6.4-0.8,9.2c-12.6,33.1-26.1,66-37.9,99.4
		c-4.5,12.6-11.5,20.3-23.4,26.1c-33.1,16.2-65.6,33.6-98.4,50.5C542,899.7,541.3,899.8,540.7,900z"/>
	<path class="st0" d="M459.5,98c1.3,4.9,0.8,8.2-4.2,10.9c-34.3,17.8-68.4,35.9-102.6,53.8c-3.6,1.9-5.7,4.3-7.1,8
		c-13.1,35-26.3,70-39.3,105.1c-0.6,1.7-1.2,3.8-0.9,5.6c5.2,31.7,10.5,63.3,16,94.9c0.4,2.1,2.3,4.8,4.2,5.7
		c29.3,13.1,58.7,26.1,88.1,38.9c5.6,2.5,6.7,4.3,6.5,13.7c-11-4.7-21.7-9.4-32.5-14c-22.5-9.6-45.1-19.3-67.7-28.8
		c-4.2-1.8-6.4-3.8-7.2-8.9c-5-33.5-10.7-66.9-16-100.3c-0.4-2.3-0.1-5,0.7-7.1c12.5-32.6,25.1-65.2,37.7-97.8
		c0.3-0.7,0.6-1.3,0.7-2c2.5-13.8,11.7-20.9,23.9-26.8c32.8-16,65-33.2,97.5-50C458,98.5,458.6,98.4,459.5,98z"/>
	<path class="st0" d="M468.1,88.6c1.6,1.3,3.4,2.4,4.7,3.9c19.6,23.2,39.2,46.4,58.7,69.6c11.3,13.3,22.7,26.5,33.8,40
		c1.9,2.3,3.1,5.7,3.4,8.8c2.5,21.6,4.6,43.2,6.9,64.8c2.7,25.8,5.4,51.6,8.2,77.4c0.4,3.8,0.7,7.6,1.2,13
		c-8.7-8.2-16.3-15.2-23.6-22.4c-0.7-0.7-0.6-3.2,0.1-4.4c5.5-9.2,11.2-18.3,17.2-27.8c-8.4-7.7-16.8-15.4-25.3-23.3
		c5.8-8.6,11.3-17,17.2-25.1c2.2-3,1.8-4.9-0.7-7.2c-6.3-5.7-12.3-11.6-18.6-17.2c-2.7-2.3-2.9-3.9-0.9-7
		c5.7-8.4,10.8-17.1,16.6-26.3c-11.1-0.7-21.2-1.4-32.7-2.2c0-10.9-0.3-21.3,0.1-31.8c0.2-4.9-1.7-5.9-6-5.9
		c-8.8-0.1-17.5-0.7-26.6-1.1c0-8.9,0-17.4,0-25.9c0-0.2,0-0.4,0-0.5c0.5-10.5,0.1-10.7-10.5-10.8c-6.3-0.1-12.7-0.5-19-1.2
		c-1.2-0.1-3.2-2.2-3.2-3.4C468.6,111.4,468.4,99.9,468.1,88.6L468.1,88.6z"/>
	<path class="st0" d="M489.2,138.6c0,9.5,0,18.2,0,27.1c-8,0.5-15.5,0.9-23.6,1.3c0,12.5,0,24.4,0,37.1c-10.9,0.8-21.1,1.5-32.3,2.4
		c3,4.9,5.7,9.2,8.3,13.5c2.8,4.5,5.4,9.1,8.5,13.3c2.1,2.7,1.4,4.1-0.8,6.1c-6.4,5.8-12.6,11.8-19,17.6c-2.5,2.3-3,4.1-0.8,7.1
		c5.9,8.1,11.4,16.5,17.3,25.1c-8.4,7.8-16.8,15.5-25.3,23.3c6.4,10.1,12.5,20,19.1,30.5c-7.9,7.5-15.8,15-24,22.9
		c8,6.7,15.9,13.3,23.6,20.1c1.1,1,1.8,3.8,1.2,5c-5,9.5-10.3,18.7-16.2,29.4c-2.1-10.8-3.2-20.3-5.9-29.5c-6.1-21.1-2.6-42-0.4-63
		c4-38.4,8.3-76.8,12.2-115.3c0.4-4.2,1.6-7.5,4.3-10.7c17.1-20,34-40.1,51-60.2C487.1,140.8,487.9,139.9,489.2,138.6z"/>
	<path class="st0" d="M534.5,794c11.1-0.8,21.3-1.5,32.5-2.3c-2.2-3.4-4-6.2-5.8-9c-3.7-6-7.2-12.1-11.2-17.9c-2-2.9-1.1-4.2,1-6.1
		c6.3-5.7,12.4-11.5,18.6-17.2c2.6-2.4,3.2-4.3,0.8-7.6c-5.8-7.9-11.2-16.2-17.1-24.9c8.3-7.7,16.7-15.3,25.3-23.3
		c-5.6-9.1-10.9-18.2-16.7-26.9c-2.2-3.3-1.4-4.7,1-6.9c7-6.4,13.8-13,21-19.9c-7.9-6.7-15.7-13.1-23.3-19.9c-1.1-1-1.7-3.8-1.1-5
		c5-9.5,10.3-18.8,16.2-29.4c2.1,10.7,3.9,20.1,5.8,29.5c0.5,2.4,0.7,4.9,1.4,7.3c4.6,15.8,0.8,31.5-0.8,47.2
		c-4,41.3-8.8,82.5-13,123.7c-0.4,4.3-1.6,7.5-4.3,10.7c-17.3,20.3-34.5,40.6-51.7,61c-0.5,0.6-0.8,1.5-2.2,1.5c0-8.7,0-17.3,0-26.3
		c7.9-0.4,15.4-0.8,23.5-1.2C534.5,818.7,534.5,806.8,534.5,794z"/>
	<path class="st0" d="M694.2,388.7c5.7-36.1,11.3-70.9,17.1-107.3c18.1,25.2,35.3,49.2,53,73.7C741,366.2,718.1,377.2,694.2,388.7z"
		/>
	<path class="st0" d="M287,718.7c-17.1-23.9-34.3-47.7-51.8-72.1c23.2-11.1,46-22.1,70.1-33.6c-5.7,35.9-11.3,70.8-16.8,105.7
		C287.9,718.7,287.5,718.7,287,718.7z"/>
	<path class="st0" d="M585.3,366.2c-1.9,18-3.8,35.5-5.9,54.4c-6.9-10.2-12.9-19.2-18.8-28.2c-0.6-0.9-0.8-3-0.2-3.7
		c7.2-7.4,14.7-14.6,22.1-21.8C582.8,366.4,583.7,366.5,585.3,366.2z"/>
	<path class="st0" d="M468.2,88.5c-9.8-0.7-19.6-1.5-29.4-2c-3-0.2-4.2-0.7-4.1-4.2c0.3-11,0.1-22,0.1-34.3
		C446.2,62,457.2,75.3,468.2,88.5L468.2,88.5z"/>
	<path class="st0" d="M565.5,48.8c0,12.5,0,24.1-0.1,35.6c0,0.9-1.2,2.5-1.9,2.5c-9,0.5-18.3,2.9-26.3-4.4
		C546.5,71.5,555.9,60.4,565.5,48.8z"/>
	<path class="st0" d="M464.1,914c-10.5,12.6-19.7,23.6-29.7,35.6c0-9.6-0.2-17.9,0.1-26.2c0.5-12.5,0.6-12.8,13.3-12.8
		C452.8,910.5,457.8,912.6,464.1,914z"/>
	<path class="st0" d="M438.1,953.2c9.5-16.5,26.5-20.9,41-28.8c2-1.1,5.7,1,8.6,1.6c0,0.5,0,1,0.1,1.6
		C471.3,936,455,944.4,438.1,953.2z"/>
	<path class="st0" d="M561.9,45c-6.9,13.1-19.6,17.9-31.3,24.1c-1.6,0.8-3.2,1.5-4.6,2.5c-4.6,3.1-9,3.4-13.7-1
		C528.8,62.1,545.2,53.7,561.9,45z"/>
	<path class="st0" d="M459.5,928.2c8.4-11.6,8.4-11.6,14.2-7.6C469.1,923.1,464.7,925.4,459.5,928.2z"/>
	<path class="st0" d="M539.5,70.5c-7.6,10.7-7.6,10.7-12.9,6.9C531.1,75,535.3,72.8,539.5,70.5z"/>
	<path class="st0" d="M472.4,501.6c8.6-7.7,16.7-15.1,25.1-22.3c0.9-0.8,3.5-1.1,4.4-0.4c8.5,6.8,16.7,13.9,25,20.9
		c0.5,0.4,0.9,1.1,1.5,1.9c-9.5,8.6-18.9,17-28.7,25.9C490.8,519.1,481.8,510.5,472.4,501.6z"/>
</g>
<g id="Layer_3" class="st1">
	<g class="st2">
		<path class="st0" d="M345,742.5c10.1-7.1,20.2-14.2,30.3-21.3c8.9-6.3,17.8-12.5,26.7-18.8c0.8-0.6,1.8-1.2,2.1-2
			c4.3-9.9,8.5-19.8,12.7-29.7c-0.3-0.3-0.7-0.5-1-0.8c-6.1,3.6-12.2,7.1-18.2,10.9c-16.9,10.6-33.6,21.4-50.6,31.8
			c-4.1,2.5-5.2,5-3.4,9.3c1.1,2.7,1.6,5.8,2.4,9.1c-7.2,0.4-13.9,1-20.7,1.1c-4.4,0-8.3-0.1-8.1,7.4c-1.9-2.7-2.8-3.9-3.9-5.5
			c8.6-5.3,16.7-10.6,25.1-15.5c3.3-1.9,3.9-3.9,2.8-7.4c-1.9-6.1-3.1-12.3-5.1-18.4c-0.9-2.7-0.4-4.3,1.6-6.1
			c10.9-10.1,21.8-20.3,32.7-30.5c4.1,4.3,8.1,8.6,12.6,13.4c-5.7,4.5-11.3,8.9-18.1,14.2c1.2-5.1,2-8.8,2.9-12.5
			c-0.4-0.3-0.7-0.5-1.1-0.8c-4.1,4.7-8.2,9.5-12.9,15c5.5,1.6,9.7,3,14.1,4c1,0.2,2.6-0.5,3.5-1.2c8.6-6.6,17.2-13.3,25.9-20.1
			c-2.4-4.3-4.4-8.6-7-12.4c-1.7-2.6-1.3-4.2,0.9-5.9c2.6-2.1,5.2-4.1,8.3-6.5c6.3,7.5,12.6,15,19.4,23c3.6-9.5,7.2-18.2,10.2-27.1
			c0.4-1.2-1.1-3.3-2-4.7c-1.6-2.4-3.6-4.6-6-7.7c6.5,0.6,12,1.1,18.3,1.7c-11.8,30-23.3,59.4-35.1,89.4c28.7,0,56.6,0,85.2,0
			c0,6.7,0.8,14-0.2,21c-1.5,9.9,4.3,14.9,11,19.9c0.1,0.1,0.3,0.1,0.9,0.3c1.7-1.4,3.4-3.2,5.5-4.4c6.4-3.5,7.4-9.1,6.8-15.7
			c-0.6-7-0.7-14-1-21.9c29.4-0.6,58.4-1.1,88.9-1.7c-13.9-31.3-27.1-61.2-40.3-90.9c20-1.5,38.2,5.6,58.4,9.8
			c-11.1,11.6-21.4,22.4-31.8,33.3c3.8,7.4,7.6,14.8,11.9,23.1c11.7-12.8,23.2-25.3,35-38.1c0.8,1.7,1.4,2.9,2.3,4.6
			c1.6-1.5,2.9-3,4.5-4.2c1.1-0.8,2.7-1.9,3.9-1.7c9.2,1.4,18.3,3,28.3,4.7c-2.5,5.8-4.7,10.7-6.8,15.5c1.6,1.2,3.5,1.9,4.2,3.2
			c5,9.7,9.8,19.4,14.8,29.7c-4.4,2.9-8.6,5.9-13.1,8.4c-3.1,1.7-3.3,3.4-2,6.4c2.2,5.4,4,11,6.2,17.4c-8.2-0.8-15.7-1.2-23.1-2.5
			c-4.9-0.9-6.6,0.5-8.9,5c-6.6,12.7-8.3,24.9-0.9,37.8c2,3.6,2.8,7.9,4.4,12.5c10.9-1.9,21.6-3.7,33-5.6c-2.1-6.5-4-12.4-6-18.7
			c-3.4,1.6-6.2,3-10.4,5c3.3,2.3,6,4.1,8.7,6c-0.4,0.7-0.8,1.3-1.2,2c-5.5-0.3-11.1-0.4-16.6-0.9c-1-0.1-2.7-1.8-2.8-2.9
			c-0.7-8.6-1.2-17.3-1.7-25.9c0-0.4,0.4-0.9,0.6-1.4c13.8,2.5,27.6,4.9,41.3,7.3c2.9,0.5,4.2,1.6,4.1,4.9c-0.2,14.5,0,29,0,43.5
			c0,4.3-0.7,8-3.9,11.5c-7,7.7-13.4,15.8-20.2,23.9c3.9,4.7,7.9,9,11.3,13.8c1.1,1.5,1.7,4.6,0.9,6.1c-5,10-10.6,19.8-15.6,29.8
			c-1.8,3.5-4.6,4.4-7.9,4.9c-11.5,1.7-23.1,3.3-34.6,5.1c-2.5,0.4-4.9,1.5-8.1,2.5c2.1,1.8,3.3,3.3,4.8,4.1c6,3.3,6.7,8.1,5.2,14.3
			c-1.9,7.6-2.7,15.4-4.3,23.1c-0.4,1.8-1.5,4.1-2.9,4.9c-6,3.3-12.3,6.1-19.1,9.3c-4.6-7.8-9.1-15.5-13.6-23.3
			c0.3-0.3,0.6-0.7,0.9-1c4.6,3.1,9.1,6.1,14.1,9.5c3.1-5.8,6-11.4,9.3-17.7c-8.6-1.1-16.4-2.1-24.3-3.1c-0.5-0.1-1,0-1.5-0.1
			c-12.7-1.5-12.5-1.5-18,10.2c-1.3,2.7-3.9,5.5-6.6,6.7c-11.1,5.1-22.5,9.7-33.8,14.2c-1.2,0.5-3.5-0.3-4.5-1.3
			c-9.1-8.4-18.2-16.9-27-25.6c-2.6-2.6-4.7-2.7-7.8-0.9c-10.1,5.9-20.5,11.3-30.7,17.2c-3.6,2.1-6.3,2.4-9.9-0.1
			c-9.9-6.6-20-12.9-30.2-19c-2.1-1.3-5-1.7-7.6-1.8c-15.2-1-30.3-1.9-46-2.9c-4.4-13.1-9.6-26-13.1-39.4
			c-2.2-8.5-6.6-12.5-14.8-14.1c-6.8-1.4-13.3-4.2-20.4-6.5c-3.1,5.7-5.9,11.1-9.2,17.3c7-0.7,13.4-1.3,21-2
			c-6.5,5.7-12.1,10.7-17.8,15.5c-0.6,0.5-1.9,0.6-2.7,0.3c-8.8-3.7-17.5-7.5-26.6-11.4c3.6-12.4,7.1-24.4,10.6-36.4
			c0.1-0.5,0.5-0.9,0.6-1.4c0.5-10.7,7.4-13.2,16.6-13.7c5.9-0.3,11.8-1.9,18.3-3c-6.5-10.6-12.2-21-19.2-30.6
			c-5.4-7.3-6.1-13.7-2.5-21.9c4.1-9.5,6.9-19.5,10.5-29.9c7.8,11.7,15.2,22.8,22.6,34c9.3,14.1,18.4,28.4,27.9,42.4
			c1.3,1.9,3.9,3.5,6.2,3.9c8.1,1.6,16.4,2.6,25.2,3.9c0.3-3.1,0.6-6.1,0.9-9.5c-5.3-0.9-10.2-1.8-16.6-2.9
			c11-7.7,21.1-14.7,31.5-22c-4.8-6.4-9.5-12.7-14.4-19.2c-8.9,6.4-17.3,12.5-26.3,18.9C364.4,773.8,354.9,758.5,345,742.5z
			 M546,729.6c-15.4,13-29.9,25.3-44.4,37.6c-14.3-12.8-28.5-25.4-42.8-38.2c0,20.2,0,39.7,0,59.9c-10.2,0-20.7,0-31.7,0
			c1.3,2.8,2.3,4.9,3.3,7c12.7,28.1,25.3,56.1,38.1,84.1c0.6,1.3,2.7,2.7,4,2.7c19.1-0.3,38.2-0.8,57.3-1.1c3,0,4.5-1,5.7-3.6
			c14.3-29.5,28.8-59,43.2-88.6c0.2-0.3,0-0.9-0.1-2c-11.3,0-22.4,0-34.1,0C544.9,768.2,545.4,749.5,546,729.6z M594.7,783.3
			c3.7-5.6,7.1-10.6,10.9-16.3c4.1,12.9,8.1,25,12.2,37.9c9-3,17.6-5.9,26.5-8.9c-5-13.1-9.7-25.7-14.4-38.3
			c-0.5-1.4-0.9-3.3-0.3-4.5c11.5-25.2,23.2-50.3,34.7-75.4c0.6-1.2,0.8-2.6,1.6-5.1c-8.9,1.1-16.7,2.1-24.4,3.1
			c-1.6-5.7-3.1-11-4.6-16c-3.7,3.8-7.3,7.4-10.5,10.8c3.5,1.7,7.5,3.5,11.7,5.5c-8.1,18.4-15.9,36.5-24,54.4
			c-5.6,12.5-10.8,25.1-19.7,35.8c-3,3.6-5.4,7.8-8.1,11.8C589.2,780,591.8,781.5,594.7,783.3z M606.5,641.3
			c-12.2-2.2-22.7-4.1-34.2-6.1c3.7,7.9,7,14.9,10.2,21.8c1.4,2.9,3.2,4.4,6.1,1.6C594.2,653.1,599.8,647.7,606.5,641.3z"/>
		<path class="st0" d="M314,295.5c4.7-3,8.9-6,13.4-8.5c2.6-1.5,3-3,1.9-5.7c-2.2-5.6-4.1-11.3-6.5-17.9c8.3,0.9,15.7,1.4,23,2.5
			c4.9,0.7,6.8-0.6,9.2-5.3c6.7-12.7,7.7-24.7,0.7-37.4c-2-3.6-2.8-7.9-4.4-12.5c-10.8,1.8-21.6,3.7-32.9,5.6c2.1,6.5,4,12.4,6,18.7
			c3.5-1.7,6.4-3.1,10.7-5.1c-3.3-2.4-5.9-4.3-8.4-6.2c0.2-0.3,0.5-0.6,0.7-0.8c5.5,0,11.1-0.1,16.6,0.1c1,0,2.6,1.5,2.6,2.4
			c0.8,9.1,1.3,18.2,1.9,27.9c-12.1-2.2-23.5-4.2-35-6.3c-3.4-0.6-8-0.4-9.9-2.5c-1.8-2-1.1-6.5-1.1-9.9c-0.1-13.4-0.3-26.7,0-40.1
			c0.1-2.6,1.4-5.5,3.1-7.5c6.6-8.4,13.6-16.5,20.7-25c-4-4.8-8-9.2-11.5-14c-1-1.4-1.5-4.3-0.8-5.7c5.4-10.6,11.1-21.1,16.9-31.4
			c0.8-1.4,2.9-2.5,4.6-2.8c13-2.2,26-4.2,38.9-6.3c1.7-0.3,3.4-1.1,5.8-2c-3.1-2.7-5.8-4.6-7.8-7.1c-1.4-1.7-2.9-4.3-2.6-6.2
			c1.3-9.6,3.2-19.1,5-28.6c0.3-1.5,1.2-3.5,2.4-4.2c6.3-3.4,12.8-6.3,19.6-9.6c4.7,8.1,9.2,15.8,13.7,23.5
			c-0.3,0.3-0.6,0.5-0.9,0.8c-4.5-3-9-6-14.1-9.4c-3,5.7-6,11.2-9.4,17.5c6.1,0.9,11.7,1.8,17.4,2.5c5.8,0.8,11.6,1.5,17.4,1.9
			c1.5,0.1,3.4-1.1,4.4-2.3c1.3-1.6,2.3-3.8,2.8-5.8c1.8-7.1,7.2-10,13.3-12.4c9.5-3.7,18.9-7.8,28.5-11.4c1.4-0.5,3.9,0,5,1
			c9.2,8.4,18.1,17,27.1,25.5c1.1,1,2.2,2,3.6,3.2c11.5-6.3,23-12.5,34.3-19c3.9-2.3,6.8-2.7,10.8,0.1c8.8,6.1,17.9,11.7,27.2,17.1
			c3.3,1.9,7.4,3,11.2,3.4c13.8,1.3,27.6,2.2,41.4,2.9c3.1,0.2,3.9,1.4,4.7,3.9c4.6,14,9.5,27.9,14.1,41.9c1,3.1,2.5,4.7,5.6,5.6
			c9,2.6,17.9,5.6,27.4,8.6c3-5.6,6-11.2,9.2-17.2c-6.9,0.6-13.3,1.2-20.9,1.9c6.4-5.7,12-10.6,17.6-15.4c0.7-0.6,2.3-0.6,3.2-0.2
			c8.6,3.6,17.2,7.3,26.3,11.2c-3.7,12.5-7.4,24.8-11,37.1c-0.1,0.3-0.3,0.6-0.3,1c-0.5,10.5-7.5,12.8-16.4,13.4
			c-5.9,0.4-11.8,1.8-18.5,2.9c3.8,6.2,7.3,11.8,10.8,17.4c4.2,6.8,8.6,13.6,12.6,20.5c1,1.7,1.4,4.5,0.8,6.3
			c-3.4,10.9-7.1,21.6-10.9,32.4c-1.4,3.9-3,7.6,2.1,11.2c-7.7,4.7-14.6,8.9-21.5,13.3c-9.4,6-8.6,3.4-5.6,14.4
			c1,3.7,1.6,7.6,3.1,11.1c2.1,4.9,0.4,7.9-3.2,11.1c-10.2,9.2-20.2,18.6-30.4,28.1c-4.1-4.3-8.1-8.5-12.6-13.3
			c5.7-4.5,11.2-8.8,18.1-14.2c-1.2,5.2-2,8.9-2.9,12.6c0.4,0.2,0.8,0.5,1.2,0.7c4-4.7,8-9.5,12.8-15c-5.6-1.6-10.1-3.1-14.7-4.1
			c-1.1-0.2-2.7,1.1-3.9,2c-8.2,6.4-16.3,12.8-24.9,19.5c2.3,4.3,4.4,8.7,7,12.6c1.6,2.4,1.2,4-0.8,5.5c-2.7,2.2-5.5,4.3-8.6,6.7
			c-6.3-7.6-12.6-15.1-19.3-23.1c-3.6,9.3-7.1,18-10.2,26.7c-0.5,1.3,1,3.6,2,5.1c1.6,2.4,3.6,4.7,5.9,7.6
			c-6.6-0.6-12.1-1.2-18.3-1.8c11.8-30.1,23.3-59.4,35.1-89.4c-28.6,0-56.5,0-85.2,0c0-6.7-0.8-14.2,0.2-21.3
			c1.5-10.3-5.2-14.9-11.8-20.1c-2.2,1.9-4,4.1-6.3,5.2c-7.3,3.6-6.5,10-6.1,16.4c0.4,6.6,0.7,13.3,1.1,20.6
			c-29.6,0.6-58.7,1.2-89.1,1.8c13.9,31.3,27.1,61.1,41,92.3c-11.3-1.7-21.5-2.8-31.6-4.7c-8.8-1.7-17.4-4.2-27.3-6.6
			c11-11.5,21.3-22.3,31.7-33.2c-3.9-7.6-7.7-14.9-11.9-23.1c-11.8,12.8-23.1,25.2-34.9,38c-0.8-1.6-1.5-2.8-2.3-4.4
			c-0.7,0.5-1.5,0.9-1.9,1.5c-2.9,4.3-6.8,4.5-11.5,3.5c-7.4-1.6-15-2.7-23.3-4.1c2.5-5.7,4.6-10.7,6.5-15c-1.8-2-3.8-3.4-4.8-5.3
			c-4.1-7.7-7.9-15.5-11.8-23.3C315.5,298.7,314.8,297.3,314,295.5z M454.6,269.8c14.6-12.3,29.1-24.7,43.7-37
			c14.4,12.9,28.5,25.5,42.8,38.2c0-20.1,0-39.6,0-59.6c10.2,0,20.7,0,31.3,0c-0.2-1-0.1-1.5-0.3-2c-12.9-28.3-25.9-56.6-38.5-85.1
			c-2.3-5.1-4.1-7.3-10.7-6.9c-17.4,1.2-34.8,1-52.3,1c-3.4,0-5.1,1.2-6.5,4.1c-7.8,16.3-15.7,32.6-23.7,48.9
			c-6.5,13.3-13,26.7-20,40.9c12,0,23.1,0,34.1,0C454.6,231.8,454.6,250.6,454.6,269.8z M654.8,257.3c-1,0.8-1.7,1.6-2.5,2.1
			c-17.5,12.3-35.1,24.5-52.5,37c-2.5,1.8-4.3,4.9-5.9,7.6c-1.7,3-2.9,6.4-4.3,9.6c-2.2,5.3-4.3,10.6-6.5,16.3c1.3-0.1,1.7,0,2-0.2
			c23.3-14.6,46.5-29.2,69.8-43.7c2.5-1.6,2.9-3.2,2.1-5.8c-1.1-3.7-2-7.6-3-11.5c8-0.4,15.2-0.6,22.3-1.1c1.8-0.1,4.8-0.7,5.1-1.7
			c0.7-2.5,1.2-5.9,0-7.8C665,233.1,648.5,208,632,183c-0.8-1.2-2.3-2.5-3.7-2.7c-9-1.5-17.9-2.7-27.2-4.1c-0.1,1.6,0,2.8-0.3,3.9
			c-1.4,4.2-0.5,6.2,4.4,6.4c3.5,0.1,7,1.3,11.5,2.2c-10.9,7.6-21,14.6-31.5,21.9c5,6.6,9.8,12.9,14.5,19.2
			c9-6.5,17.4-12.5,26.2-18.9C635.6,226.4,645.1,241.7,654.8,257.3z M382.1,195c-9.3,3.2-17.8,6.1-26.5,9.1
			c5.1,13.4,10,26,14.7,38.7c0.5,1.4,0.2,3.5-0.4,5c-4.6,10.5-9.4,21-14.2,31.5c-6.3,13.6-12.7,27.2-18.9,40.9
			c-0.9,1.9-1.5,3.8-2.9,7.1c9.1-1.1,16.8-2,24.6-2.9c1.6,5.7,3.2,11,4.7,16.5c3.9-4,7.4-7.6,10.7-11c-3.8-1.8-7.8-3.7-12-5.7
			c8.2-18.7,16.2-37,24.4-55.3c5.1-11.4,9.7-23.1,17.8-32.9c3.5-4.2,6.4-9.1,9.6-13.9c-3.2-1.9-5.8-3.5-8.6-5.2
			c-3.6,5.5-7.1,10.6-10.9,16.2C390.2,220.2,386.3,208.1,382.1,195z M393.9,358.7c11.7,2.2,22.2,4.1,33.8,6.2
			c-3.8-8.2-7-15.5-10.7-22.5c-0.5-1-4.2-1.9-4.9-1.2C406,346.5,400.5,352.3,393.9,358.7z"/>
		<path class="st0" d="M548.4,592.9c-6-13.8-11.4-26.3-16.9-38.8c-7.6-17.5-15.3-34.9-22.9-52.4c-0.4-0.9-0.5-2.2-0.1-3.1
			c12.3-29.7,24.7-59.3,37.3-89.5c3.4,4.4,6.6,8.4,9.7,12.4c3.7,4.8,7.1,9.7,11,14.3c4.5,5.2,6.7,10.7,6.1,17.7
			c-0.7,7.3-0.1,14.7-0.1,22.7c4.2-0.3,7.9-0.6,11.9-0.9c-0.6-5.4-1.1-10.6-1.8-17.4c2.5,2.9,4.3,4.7,5.9,6.7
			c8.6,11.3,17.1,22.7,25.8,33.9c2.6,3.3,3,5.7,0,9.4c-21.3,27.1-42.3,54.4-63.4,81.6C550.2,590.4,549.6,591.2,548.4,592.9z"/>
		<path class="st0" d="M427.5,523.7c-4.4,0.4-8,0.8-11.9,1.2c0.6,5.3,1.1,10.4,1.6,15.5c-0.3,0.2-0.7,0.5-1,0.7
			c-11.3-14.6-22.6-29.2-34.2-44.2c22.8-29.4,45.8-59,69.8-89.8c0.4,1.2,0.6,1.8,0.9,2.4c12.1,28,24,56,36.4,83.8
			c2.4,5.3,2.1,9.1-0.1,14.2c-11.8,27.5-23.1,55.2-34.9,83.5c-3.3-4.1-6.3-7.8-9.2-11.6c-5.2-6.8-10.4-13.5-15.4-20.5
			c-1.2-1.7-2-4.2-2.1-6.3C427.3,543.2,427.5,533.8,427.5,523.7z"/>
		<path class="st0" d="M500.1,500.2c4.5,10.4,8.5,19.5,12.5,28.6c9.6,22.1,19.2,44.1,28.5,66.3c0.9,2.1,0.5,5.8-0.9,7.6
			c-11.5,15.4-23.4,30.5-35.2,45.6c-1.1,1.4-2.5,2.6-4.1,4.3c-4.5-5.8-8.7-11.2-12.8-16.6c-8.3-10.9-16.5-21.9-24.9-32.7
			c-2.3-2.9-2.8-5.9-1.5-9C474.4,563.4,487,532.5,500.1,500.2z"/>
		<path class="st0" d="M499.2,347c8,11.2,15.4,21.7,23.1,32.1c4.5,6.1,9.9,11.6,14.2,17.9c1.6,2.3,2.3,6.5,1.3,9
			c-12,30.5-24.4,60.8-36.7,91.1c-0.2,0.6-0.7,1-1.5,2.1c-4.1-9.5-8-18.4-11.9-27.4c-9.6-22.3-19.4-44.5-28.7-66.8
			c-0.9-2.1-0.5-5.9,0.8-7.7c11.3-15.1,23-29.9,34.6-44.8C495.6,350.7,497.2,349.2,499.2,347z"/>
		<path class="st0" d="M298,420.8c22-24,44-48.1,66.7-72.9c2.4,8.7,2.1,18.8,15.9,16.4c-0.3,0.6-0.6,1.1-0.9,1.7
			c-32.8,34.1-65.5,68.1-98.5,102.3c-2.3-1.7-4.1-3.1-6.3-4.9c3.4-4.6,6.4-9.1,10-13.2c2.2-2.5,2-4.2,0.1-6.4
			c-8.6-10.2-17.2-20.5-25.8-30.7c-1.1-1.3-2-2.6-3.3-4.2c5.3-4.5,10.3-8.7,15.9-13.5C280.4,403.8,289,412.1,298,420.8z"/>
		<path class="st0" d="M744.1,590.9c-5.4,4.6-10.5,8.9-16.5,14c-8.3-8.4-16.7-16.9-25.5-25.9c-22.1,24.1-44.2,48.2-66.9,73
			c-1.3-5-1.4-9.8-3.8-12.7c-2.3-2.8-7.1-3.6-11.2-5.4c32.7-34,65.4-68,98.4-102.3c2.2,1.7,4.1,3.2,6.4,4.9
			c-4.2,5.6-8.2,10.9-12.6,16.7C723,565.7,733.5,578.2,744.1,590.9z"/>
		<path class="st0" d="M638.9,406c-13.9,15-27.8,30-42.1,45.6c6.3,8,12.7,16.2,19.1,24.3c-2.7,2.6-5.2,5-7.9,7.6
			c-10.6-13.9-21.4-28-32.5-42.5c9.5-9.4,18.8-18.9,28.3-28c2.6-2.5,2.8-4.4,0.6-7.1c-8.2-10.5-16.4-21.1-24.6-31.8
			c6.8-5.4,13.6-10.7,20.6-16.1C613.1,373.9,625.8,389.6,638.9,406z"/>
		<path class="st0" d="M403.2,548.5c-6.4-8.1-12.7-16.2-19.2-24.3c2.5-2.6,5-5.1,7.8-7.9c10.9,14.3,21.7,28.3,32.7,42.7
			c-10.5,10.3-20.9,20.5-31.8,31.1c9.4,12.3,18.3,24,27.4,36c-6.7,5.3-13.5,10.6-20.5,16.1c-12.7-15.8-25.4-31.5-38.6-48
			C374.8,579.1,388.7,564.1,403.2,548.5z"/>
		<path class="st0" d="M547.3,609.4c1.9,4.1,3.6,7.1,4.7,10.4c0.4,1.1-0.7,3-1.7,4.2c-19.9,25.2-39.8,50.3-59.7,75.4
			c-0.5,0.7-1.2,1.2-1.6,2c-4.2,9.4-11.9,10.4-21.5,8.3C494,676.5,520.3,643.4,547.3,609.4z"/>
		<path class="st0" d="M532.7,289.7c-27.1,34.1-53.4,67.2-80.2,100.8c-1.7-3.7-3.7-6.7-4.5-9.9c-0.4-1.6,0.9-4.1,2.1-5.6
			c13.3-16.9,26.8-33.8,40.2-50.7c7.8-9.8,15.7-19.5,23.2-29.6c2.7-3.6,5.3-5.6,9.8-5C526.1,289.9,529,289.7,532.7,289.7z"/>
		<path class="st0" d="M414.2,710.8c2.2-3.4,3.8-6.6,6-9.4c17.4-21.8,34.9-43.5,52.4-65.2c0.7-0.9,1.5-1.7,2.7-3
			c1.9,2.4,3.9,4.4,5.3,6.8c0.6,1.1,0.7,3.3,0,4.2c-14.6,18.3-29.3,36.4-43.9,54.6c-1,1.3-1.8,2.8-2.7,4.1
			C427,712,427,712,414.2,710.8z"/>
		<path class="st0" d="M585.5,289.7c-2.3,3.4-4.3,6.8-6.7,9.8c-17.2,21.5-34.5,43-51.7,64.4c-0.7,0.9-1.5,1.8-2.5,3.1
			c-2.4-3.1-4.7-5.9-7.1-8.9c11.4-14.3,22.6-28.4,33.7-42.5c5-6.4,10.5-12.5,15-19.2C570.9,289.2,576.8,287.4,585.5,289.7z"/>
		<path class="st0" d="M442.9,368.2c-0.7-1.4-0.9-2.2-1.4-2.8c-4.5-5.9-2.8-10.5,1.8-16c14.6-17.6,28.6-35.6,42.6-53.7
			c3.2-4.1,6.4-6.5,11.7-5.6c1.9,0.3,4,0.1,7.3,0.1C483.9,316.6,463.6,342.2,442.9,368.2z"/>
		<path class="st0" d="M557,631.6c1.6,3.4,3.1,6.1,4,9.1c0.4,1.4,0,3.7-0.9,4.9c-16.3,20.7-32.7,41.4-49.1,61.9
			c-0.9,1.1-2.7,2-4.1,2.1c-3.5,0.3-7,0.1-11.9,0.1C516,683.3,536.3,657.7,557,631.6z"/>
		<path class="st0" d="M439.8,711.1c16.7-21,32.6-40.9,48.7-61.2c2.1,2.6,4.2,4.8,5.7,7.3c0.6,1,0.5,3.3-0.3,4.3
			c-12.2,15.7-24.5,31.3-37.2,46.7c-1.6,1.9-5.2,2.4-8,2.9C446.3,711.5,443.6,711.1,439.8,711.1z"/>
		<path class="st0" d="M511.5,349.9c-0.8-0.6-1.2-0.7-1.4-1c-6.3-8.2-6.3-8.2,0.1-16.3c9.7-12.1,19.7-24,28.9-36.5
			c4-5.4,8.6-7.3,14.8-7.1c1.5,0,3,0,5.9,0C543.4,309.7,527.5,329.7,511.5,349.9z"/>
		<path class="st0" d="M433.5,346.3c-5.6-8-5-13.9,1.5-20.7c8.9-9.5,16.3-20.3,24.3-30.6c2.2-2.8,4.5-4.5,8.4-4.1
			c3,0.3,6.2-0.5,10.6-0.9C462.9,309.2,448.4,327.6,433.5,346.3z"/>
		<path class="st0" d="M566.6,653.4c2,4.5,3.5,8.1,5.2,12c-10.9,13.8-21.8,27.7-32.9,41.5c-1,1.2-2.9,2-4.5,2.2
			c-3.8,0.5-7.6,0.5-12.6,0.7C536.9,690.7,551.4,672.4,566.6,653.4z"/>
		<path class="st0" d="M537.9,383.6c-7.5-7.8-7.5-7.8-1-16.1c10.7-13.6,21.5-27.1,32.5-40.5C561.9,347.6,555.2,368.5,537.9,383.6z"
			/>
		<path class="st0" d="M430.7,672.9c7.5-20.4,13.6-41.4,31.3-56.5c1.7,2,3.9,4.4,5.8,7c0.5,0.7,0.3,2.7-0.3,3.5
			C455.3,642.3,443,657.6,430.7,672.9z"/>
		<path class="st0" d="M575.4,675.8c7.1,8.2,6.1,15.3-1.6,21.7c-0.7,0.6-1.4,1.5-1.8,2.4c-4.6,9.3-12.3,11.1-22.6,8.6
			C558.3,697.4,566.9,686.5,575.4,675.8z"/>
		<path class="st0" d="M424,324.7c-1.7-3.8-3.4-7.1-4.6-10.5c-0.4-1.2,0-3.3,0.9-4.4c4.3-5.9,8.8-11.7,13.4-17.4
			c0.6-0.8,1.9-1.4,2.9-1.4c4.3-0.2,8.6-0.1,14.3-0.1C441.5,302.6,432.9,313.5,424,324.7z"/>
		<path class="st0" d="M585.6,697.6c1.7,3.9,3.1,6.9,4.6,10.3c-4.1,0-7.9,0-12.5,0C580.3,704.5,582.6,701.5,585.6,697.6z"/>
		<path class="st0" d="M414.2,302.2c-1.7-3.8-2.9-6.7-4.4-10.1c4.1,0,7.7,0,12.4,0C419.4,295.6,417.1,298.5,414.2,302.2z"/>
		<path class="st0" d="M470.4,826c10.2-6,19.6-11.7,29.2-17.1c1-0.5,2.9-0.2,4,0.4c10.2,5.3,20.4,10.8,31.1,16.5
			c-10.2,6.3-19.8,12.4-29.4,18.3c-0.8,0.5-2.3,0.7-3.1,0.2C491.8,838.5,481.5,832.4,470.4,826z M502.9,836.1
			c9-11.1,9.7-7.2,0.4-18.8c-2.6,3.3-5.1,6.5-7.7,9.7C498.1,830.2,500.4,833,502.9,836.1z"/>
		<path class="st0" d="M465.2,174.2c9.9-6.3,19-12.2,28.3-17.8c1.2-0.7,3.4-1.1,4.4-0.5c10.3,5.7,20.5,11.7,31.6,18.1
			c-10.5,6.2-20.2,12-29.9,17.6c-0.7,0.4-2.2-0.3-3.1-0.8C486.2,185.5,476.1,180,465.2,174.2z M496.6,182.7c2.6-3.3,5.1-6.4,7.7-9.7
			c-2.6-3.1-5-6.1-7.5-9.1C488.4,173.9,488.4,173.9,496.6,182.7z"/>
	</g>
</g>
<g id="Layer_2" class="st1">
	<g class="st2">
		<path class="st0" d="M550,258.5c14.1,5.1,28.3,10.2,42.4,15.3c0.2-0.3,0.5-0.6,0.7-0.9c-3.5-4.5-7-9-10.7-13.7
			c3.7-4.6,7.3-9,12-14.7c0,9.9,0,18.2,0,27.5c11.9,0,23.2,0,34.5,0.1c1,0,2,1,3.7,1.9c-6.6,9.2-13,18.2-19.6,27
			c-0.5,0.7-2.4,0.8-3.4,0.4c-5.5-2.3-11-4.8-16.1-7c-14.9,6.6-29.6,13.1-45.4,20c13.9,7,26.9,13.6,40.5,20.4c-2,3-3.8,5.6-5.7,8.3
			c-2.5,3.5-5.2,6.9-7.6,10.5c-5.5,8.2-10.9,16.5-22.4,19c2.6,1.6,4.1,2.5,6.1,3.7c-1.9,2.6-3.6,4.9-5.7,7.8
			c-10.8-7.1-23.5-10.7-32.4-19.5c5.5-2,10.8-3.4,15.6-5.8c9-4.6,17.7-9.7,27.2-15c-6.6-3.3-12.8-6.3-19.1-9.4c-6-2.9-11.9-6-18-8.6
			c-1.8-0.8-4.6-0.7-6.4,0.1c-6.2,2.8-12.2,6-18.8,9.3c-3.8-5.4-7.4-10.7-11.4-16.4c2.6-1.6,4.9-3.1,8.6-5.5
			c-19-2.5-24-18.3-33-30.1c2.6-2.6,4.8-5.4,7.6-7.4c4.2-3,5.2-8.9,10.8-10.9c4.9-1.8,9.5-4.7,15.1-7.6c-9.3-4.1-17.7-7.9-26.1-11.6
			c-5-2.2-10-4.6-15.1-6.5c-3.2-1.2-3.8-3.2-4.2-6.4c-0.8-7.4,1.7-11.6,8.9-14.7c12.2-5.2,23.8-11.7,36.7-18.2
			c-9.9-4.4-18.8-8.3-27.8-12.2c-4.7-2.1-9.6-3.9-14.1-6.3c-1.6-0.8-3.3-3-3.4-4.6c-0.3-8.8-0.2-17.7,0.2-26.5
			c0.1-1.7,1.7-4,3.2-4.8c12.5-6.9,25.2-13.6,37.9-20c9.6-4.9,19.4-9.5,29.2-13.9c1.3-0.6,3.6-0.3,4.9,0.4
			c20.9,10.9,41.7,22,62.4,33.1c1.1,0.6,2.2,2.5,2.3,3.8c0.3,9.3,0.5,18.7,0.2,28c0,1.6-1.8,3.9-3.4,4.6
			c-12.6,5.8-25.2,11.2-37.9,16.8c-1,0.4-2,1-3.6,1.9c13.9,7,26.9,13.9,40.3,20.1c6.8,3.1,3.8,8.6,4.7,13.2c0.7,3.9-2,5-5,6.2
			c-13.1,5.7-26.2,11.5-39.3,17.3C550.2,257.3,550.1,257.9,550,258.5z M579.8,161c-1.2-0.8-1.9-1.2-2.6-1.6
			c-16.7-8.2-33.4-16.4-50.3-24.3c-1.6-0.7-4.2-0.3-5.8,0.5c-16.1,7.9-32.2,16-48.2,24c-1.1,0.5-2.1,1.3-3.6,2.3
			c17,7.9,33.3,15.3,49.4,23.3c5.2,2.6,9.1,2.4,14.1-0.3C548.1,176.7,563.7,169.1,579.8,161z M565,287c-2.2-1.2-3.8-2.1-5.4-2.9
			c-10.5-5.1-21-10.1-31.4-15.3c-2.6-1.3-4.7-1.4-7.4,0c-10.9,5.7-22,11.1-32.9,16.7c-1.1,0.5-2.1,1.3-3.6,2.3
			c13.5,6.4,26.4,12.6,39.4,18.6c0.9,0.4,2.3,0.4,3.2-0.1C539.4,300.1,551.8,293.7,565,287z M483.9,230.1
			c14,6.6,26.9,12.8,39.8,18.8c1.2,0.5,3.2,0,4.5-0.7c11.3-5.6,22.5-11.4,33.8-17.1c0.8-0.4,1.4-1.1,2.5-2
			c-13-6.4-25.6-12.5-38.1-18.5c-1-0.5-2.7-0.5-3.7,0C510.1,216.9,497.5,223.2,483.9,230.1z"/>
		<path class="st0" d="M443.9,743.6c-14.1-5.1-28.3-10.2-42.4-15.3c-0.3,0.3-0.5,0.6-0.8,0.9c3.4,4.5,6.9,8.9,10.6,13.7
			c-3.7,4.6-7.3,9-11.8,14.6c0-9.7,0-18.1,0-26.4c-13-1.4-25.7,1.3-38.8-2.1c7.1-9.9,13.3-18.7,19.8-27.4c0.6-0.8,2.5-0.7,3.7-0.9
			c0.3,0,0.6,0.3,0.9,0.4c5.3,2.2,10.6,6.2,15.9,6.1c5.2,0,10.3-4.2,15.5-6.5c9.4-4.2,18.8-8.3,29.3-12.9
			c-13.9-7-26.9-13.6-40.5-20.5c2.6-3.7,5-7,7.4-10.3c2-2.8,4.1-5.7,6.1-8.5c2.9-4.1,5.3-8.7,8.9-12c3.4-3.2,8.1-5,12.4-7.5
			c-1.7-1.1-3.2-2-4.9-3.2c1.9-2.6,3.6-5,5.7-7.9c10.6,7.5,23.6,10.7,32.1,19.6c-5.5,2-10.8,3.5-15.6,5.9c-8.9,4.5-17.5,9.6-27,14.9
			c6.8,3.4,13.2,6.6,19.7,9.8c5.7,2.8,11.3,5.7,17.1,8.1c2,0.8,4.9,0.8,6.8-0.1c6.2-2.7,12.2-6,18.6-9.2c3.8,5.6,7.5,10.9,11.3,16.5
			c-2.6,1.6-4.8,2.9-8.6,5.3c19,2.7,23.8,18.5,33.3,30.4c-2.7,2.5-6,4.5-7.6,7.4c-4.9,8.7-13.6,11.8-21.5,16.1
			c-1.3,0.7-2.5,1.5-4.3,2.5c13.8,6.1,26.9,12.1,40.3,17.6c3.8,1.6,4.5,3.7,4.8,7.5c0.6,7.1-1.8,11-8.6,13.9
			c-12.2,5.3-23.9,11.8-36.8,18.3c6.4,2.8,11.7,5.3,17.1,7.7c8.1,3.6,16.1,7.2,24.3,10.5c2.7,1.1,3.9,2.6,3.9,5.5
			c-0.2,9-0.1,18-0.4,27c-0.1,1.5-1.4,3.7-2.8,4.4c-12.4,6.8-24.9,13.4-37.5,19.8c-8.8,4.5-17.8,8.9-26.9,12.9
			c-1.8,0.8-4.6,0.8-6.3-0.1c-21.3-10.9-42.5-22-63.7-33.2c-1.3-0.7-2.6-2.6-2.7-4c-0.3-9.2-0.2-18.3-0.4-27.5c-0.1-3,1.7-3.9,4-4.9
			c13.4-5.8,26.8-11.7,41.3-18.1c-9.2-4.7-17.3-8.8-25.5-13c-5.2-2.6-10.4-5.4-15.7-7.7c-2.8-1.3-4.2-2.9-3.8-6.1
			c0.1-1.1-0.1-2.3-0.2-3.5c-0.7-5,0.6-8.1,6-10.1c12.1-4.6,23.8-10.3,35.7-15.5c0.9-0.4,1.7-0.9,2.5-1.3
			C443.7,744.6,443.8,744.1,443.9,743.6z M525,840.4c-19-9-36.9-17.5-54.9-25.8c-1.3-0.6-3.5-0.1-5,0.7c-10.2,4.9-20.3,10-30.4,15.2
			c-6.7,3.4-13.4,7-20.4,10.6c0.8,0.7,1.2,1.1,1.6,1.3c17.1,8.3,34.1,16.7,51.2,24.8c1.3,0.6,3.6,0.3,5-0.3
			c9.2-4.4,18.2-9,27.3-13.6C507.6,849.1,515.7,845,525,840.4z M510,771.9c-14-6.7-26.9-12.8-39.9-18.8c-1.2-0.5-3.2,0-4.5,0.7
			c-11.3,5.6-22.5,11.4-33.8,17.2c-0.8,0.4-1.4,1.1-2.4,1.9c13,6.3,25.5,12.5,38.1,18.5c1,0.5,2.6,0.5,3.6,0
			C483.8,785.2,496.3,778.8,510,771.9z M428.7,715.1c13.7,6.7,26.5,13,39.4,19.2c0.8,0.4,2,0.3,2.8-0.1
			c12.7-6.3,25.4-12.8,39.2-19.8c-1.3-0.5-1.8-0.7-2.2-0.9c-12.5-5.9-24.9-11.8-37.4-17.7c-0.9-0.4-2.4-0.6-3.2-0.2
			C454.6,701.9,442.1,708.3,428.7,715.1z"/>
		<path class="st0" d="M364.2,296.8c8.6-8.5,16.7-16.6,24.8-24.6c0.5-0.5,1.5-0.9,2.2-0.9c7.3-0.1,14.7-0.1,22,0c1,0,2.2,0.7,3,1.4
			c4.9,4.6,9.7,9.1,14.3,13.9c1.1,1.2,1.7,3.6,1.5,5.2c-1.5,10-3.3,20-5.3,30c-0.4,1.9-2.2,4.1-3.9,5c-9.7,5.2-19.6,10-29.4,14.9
			c-1.4,0.7-2.8,1.6-5,2.8c9.8,5.1,18.8,9.9,27.8,14.6c4.2,2.2,4.4,3.3,0.9,6.4c-10.7,9.5-21.3,19.1-32.2,28.4
			c-2.2,1.9-5.4,3-8.3,3.7c-4.3,1-8.9,1.8-13.3,1.7c-3.7-0.1-4.7,1.6-5.7,4.5c-17.5,52.7-35.1,105.3-52.6,158
			c-0.3,0.8-0.4,1.6-0.9,3.1c7.9,2.3,15.8,4.6,23.7,6.7c13.6,3.7,27.5,6.6,40.7,11.4c12.4,4.4,25.8,7,36.3,16.5
			c-3.4,5.3-6.6,10.8-13.3,13.8c-10.4,4.7-20.5,10.2-31.4,15.8c0-12.3,0-23.9,0-35.7c-24.4-6.1-48.3-12.1-72.2-18.2
			c24.2-71.9,49.9-142.7,73.4-214.1c2.3,2.9,5.4,6.8,8.8,11.1c-2.3,3-4.9,5.6-6.6,8.8c-1.5,2.8-1.9,6.2-2.8,9.3
			c0.5,0.2,1,0.5,1.4,0.7c11.9-6.1,23.8-12.2,36.9-18.8c-8-4-15.1-7.5-22.1-10.9c-4.8-2.3-9.7-4.4-14.3-7.1c-1.4-0.8-2-2.9-2.9-4.5
			c-0.1-0.2,0-0.7,0-1c-2-9.6,1.9-15,11.2-18.6c10.9-4.3,21.1-10.4,32.7-16.2C390,308.2,377.4,302.7,364.2,296.8z"/>
		<path class="st0" d="M708.7,194C567.8,392.2,427.7,589.4,287.3,787c-2.2-1.6-4.4-3.2-7.1-5.1c4.8-6.4,9.4-12.6,14-18.9
			c18.5-25.2,38.8-49.3,55-76c14.6-24,31.4-46.3,47-69.5c15.4-22.7,31.6-44.9,47.4-67.4c34-48.5,67.8-97.1,102-145.4
			c39.2-55.5,78.6-110.7,117.9-166.1c7.6-10.7,15.3-21.4,22.7-32.3c3.3-4.9,6.9-8.7,13-9.6C702,196.3,704.7,195.1,708.7,194z"/>
		<path class="st0" d="M289.1,658.2c4.8,2.3,8.8,4.2,12.8,6.2c8.1,3.9,16.1,8.1,24.3,11.7c2,0.9,5.2,0.8,7.2-0.1
			c8.4-3.8,16.6-8.2,25.5-11.6c-5.8,8-12.2,15.7-17.1,24.2c-4.4,7.6-11.2,10.6-18.5,14c-10.3,4.7-20.2,10.3-31.2,16
			c6.6,2.4,11.3,9.3,18.5,1.6c0.5,5.5,1.2,9.7-2.1,14.1c-10.3,13.7-20.2,27.7-30.3,41.6c-0.7,0.9-1.4,1.8-2.4,2.9
			c-6.9-4.9-13.7-9.6-20.7-14.6c-2.4,2.7-4.7,5.3-7.7,8.8c0-7.2,0-13.4,0-20.2c4.6,2.2,9.3,4.6,14.1,6.6c1.6,0.7,4.1,1,5.4,0.2
			c10.8-6.6,21.5-13.5,32.2-20.3c-0.1-0.6-0.2-1.1-0.3-1.7c-7.4-3.5-15.1-6.5-22.1-10.8c-9-5.5-17.3-6.2-25.8,0.5
			c-1,0.8-2.4,1.1-4.1,1.9c0-9,0-17.6,0-26.8c4.5,2.2,8.6,4.2,12.8,6.1c1.4,0.6,3.4,1.1,4.6,0.6c12.7-6.2,25.3-12.6,38.8-19.4
			c-4.1-2-7.4-3.7-10.8-5.3c-9-4.3-18-8.7-27.2-12.6c-1.9-0.8-4.8-0.6-6.8,0.1c-4,1.5-7.7,3.7-12.5,6.1c0-19.9,0-38.9,0-58.8
			c25.2,7.1,50.7,14.3,77.3,21.7C311.2,646.8,300.6,652.2,289.1,658.2z"/>
		<path class="st0" d="M748.2,382.9c-25.2-7.1-50.6-14.2-77.1-21.7c11.6-6,22.1-11.4,33.6-17.3c-6.9-3.4-13.1-6.5-19.3-9.6
			c-6-2.9-11.9-6-18-8.6c-1.8-0.8-4.6-0.8-6.4,0c-7.7,3.5-15.2,7.5-22.8,11.3c-0.2-0.4-0.5-0.8-0.4-0.9c4.8-7.5,9.5-15.1,14.4-22.4
			c3.7-5.5,7.4-10.2,14.5-12.8c11.8-4.4,22.8-11.1,35.3-17.5c-4.7-2.2-8.3-3.9-11.9-5.7c-2-1-4.2-1.9-6-3.3
			c-0.7-0.6-1.1-2.8-0.6-3.5c11.4-16,22.9-31.8,34.5-47.9c7.1,5,13.7,9.7,20.9,14.7c2.4-2.6,4.7-5.2,7.8-8.7c0,7.4,0,13.5,0,20.2
			c-4.8-2.3-9.4-4.6-14-6.7c-1.3-0.6-3.2-1.4-4.1-0.9c-5.5,3-10.9,6.2-16.1,9.6c-4.5,2.9-8.7,6.1-13,9.2c-1.4,1-2.7,2.2-4.7,3.8
			c11.9,5.6,23.2,11,34.5,16.2c1,0.5,2.8-0.2,4.1-0.8c4.6-2.2,9.1-4.5,14.2-7.1c0,9.3,0,17.9,0,27.1c-4.6-2.2-8.6-4.3-12.9-6
			c-1.6-0.7-4-1-5.5-0.3c-12,5.8-23.8,11.9-35.7,17.9c-0.5,0.3-1,0.7-2,1.5c13.6,6.4,26.6,12.6,39.7,18.7c1.1,0.5,2.9-0.2,4.1-0.7
			c4.1-1.9,8-3.9,13.1-6.5C748.2,344.1,748.2,363.2,748.2,382.9z"/>
		<path class="st0" d="M288.7,806.8c140.4-197.3,280-393.4,419.9-590.1c1.7,1.1,3.1,2,5.2,3.3c-2.4,3.3-4.7,6.3-6.9,9.3
			c-21.1,28.7-42.8,57-62.9,86.3c-4.9,7.1-8.4,15.5-13.6,22.7c-26.8,37.9-53.6,75.9-80.3,113.9c-34.1,48.6-68,97.4-102.3,145.9
			c-47,66.5-94.3,132.8-141.1,199.3C302.2,803.9,296.2,804.7,288.7,806.8z"/>
		<path class="st0" d="M590.4,687.8c13.5,6,26,11.5,39.4,17.4c-8.6,8.5-16.5,16.4-24.6,24.3c-0.7,0.7-2,1-3.1,1.2
			c-1.6,0.2-3.3,0.1-5,0.1c-19.9,0-20.9-0.4-33.8-15.5c-1.1-1.3-1.6-3.6-1.4-5.3c1.5-10,3.2-20,5.3-30c0.4-1.9,2.3-4,4-5
			c10.7-5.7,21.6-11.1,32.5-16.5c0.3-0.1,0.5-0.4,1.2-0.9c-4.3-2.6-8.4-5.1-12.7-7.5c-3.3-1.9-6.8-3.5-10.3-5.2
			c-9.7-4.8-9.7-4.7-1.6-11.7c9.5-8.3,18.8-16.9,28.5-25c2.4-2,5.6-3.2,8.7-3.9c5.2-1.1,10.5-1.4,15.8-2.1c1.8,5,0.5,7.9-4.2,10.1
			c-11.2,5.3-22.2,11.2-34.3,17.3c5.2,2.6,9.4,4.7,13.6,6.7c7.3,3.6,14.6,7.2,22,10.7c2.5,1.2,3.5,2.7,3.9,5.6
			c1.3,9.6-1.6,15.4-11.4,19.1C612,675.8,601.9,682,590.4,687.8z"/>
		<path class="st0" d="M708.8,426.9c-24.3,70.1-48.4,140.1-72.6,210c-0.3,0-0.6-0.1-0.9-0.1c0-10.7-1.2-21.6,0.4-32.1
			c1.2-8.2,6.2-15.7,8.9-23.7c16-47.7,31.8-95.5,47.9-143.9c-7.7-2.2-15.3-4.4-22.9-6.5c-13.8-3.8-27.7-7-41.2-11.4
			c-13.4-4.3-27.9-6.3-39.4-16.9c3.1-4.1,5.4-9.6,11.2-12.4c9.9-4.8,19.6-9.9,29.4-14.9c1.1-0.6,2.4-0.9,4.3-1.7
			c0,10.4,0.1,20.1-0.1,29.9c-0.1,3.4,0.5,5.1,4.5,6c22.4,5.3,44.7,11.1,67.1,16.7C706.5,426.1,707.6,426.5,708.8,426.9z"/>
		<path class="st0" d="M453,297.2c7.6,13,14.6,25,21.7,37.1c15.3,26.3,30.6,52.6,45.9,78.9c3.9,6.8,3.8,7.4-2.8,12.6
			c-10.8-7.9-21.7-15.8-32.5-23.8c-1.1-0.8-1.9-2.3-2.3-3.7c-10.1-32.9-20.1-65.8-30.1-98.8C452.8,299.3,452.9,298.9,453,297.2z"/>
		<path class="st0" d="M542.2,706.5c-0.9-1.3-1.9-2.6-2.7-3.9c-22.6-38.8-45.2-77.7-67.9-116.4c-3.1-5.3,1.9-6.8,4-10.3
			c9.4,6.8,18.3,13.7,27.6,20c5,3.4,7.7,7.5,9.4,13.2c8.8,29.9,18,59.6,27.1,89.3c0.8,2.5,1.9,4.9,2.9,7.3
			C542.5,706,542.3,706.3,542.2,706.5z"/>
		<path class="st0" d="M558.9,649.8c3.8-17.3,7.5-34.5,11.3-51.8c3.8-17.3,7.6-34.6,11.4-51.8c0.4-1.7,1.1-3.6,2.2-4.8
			c15.2-16.3,30.5-32.4,45.7-48.7c11.2-12,22.3-24.1,33.5-36.2c1-1.1,2.1-2,3.9-2.5c-2.2,3.1-4.4,6.2-6.7,9.3
			c-16,22-32.6,43.6-47.9,66.1c-7,10.3-11.6,22.4-17.2,33.7c-3.8,7.6-7.8,15.1-10.9,22.9c-7.8,19.7-15.2,39.6-22.8,59.5
			c-0.6,1.5-1.3,3-1.9,4.6C559.3,650,559.1,649.9,558.9,649.8z"/>
		<path class="st0" d="M435.6,350.8c-2.1,9.8-4.1,19.7-6.3,29.5c-5.4,24.7-10.9,49.4-16.4,74.1c-0.4,1.8-1.3,3.8-2.6,5.2
			c-11.9,12.8-24,25.4-35.9,38.1c-14.6,15.7-29.1,31.4-43.7,47.2c-1,1.1-1.8,2.4-2.7,3.6c-0.4-0.3-0.7-0.6-1.1-0.9
			c2.3-3.3,4.6-6.6,6.9-9.8c16.3-22.2,33-44.2,48.6-66.8c6.3-9.2,10.6-19.9,15.3-30.2c7.6-16.6,15.2-33.2,22.2-50
			c4.9-11.8,8.9-24,13.3-36c0.5-1.4,1.2-2.7,1.7-4C435.3,350.7,435.4,350.8,435.6,350.8z"/>
		<path class="st0" d="M795.4,111.9c-10.1-7-19.8-13.7-29.9-20.7c7.3-10.3,14.1-20.1,21.2-30.3c10,7,19.5,13.8,29.4,20.8
			C809.2,91.8,802.4,101.6,795.4,111.9z"/>
		<path class="st0" d="M183.8,918.1c7-10.2,13.8-20,20.9-30.2c10.1,7.1,19.7,14,29.7,21c-7.2,10.3-14.1,20-21.1,30.1
			C203.2,931.9,193.6,925.2,183.8,918.1z"/>
		<path class="st0" d="M548.2,685.4c-10.9-40.1-21.9-80.2-32.8-120.3c0.5-0.3,1.1-0.5,1.6-0.8c5.3,6.5,13.6,10.1,16.1,19.3
			c2.8,10.3,7.3,20.1,9.6,30.4c2,8.8,2.2,18.1,2.9,27.2c1.3,14.7,2.4,29.4,3.6,44.1C548.9,685.3,548.5,685.3,548.2,685.4z"/>
		<path class="st0" d="M445.7,316.7c10.9,40.1,21.8,80.1,32.7,120.2c-0.5,0.3-1.1,0.5-1.6,0.8c-5.2-6.3-13.3-9.8-15.9-18.8
			c-3-10.4-7.2-20.4-9.8-30.9c-1.7-6.8-1.7-14.1-2.3-21.2c-1.4-15-2.6-30.1-3.9-45.1c-0.1-1.6,0-3.2,0-4.8
			C445.1,316.8,445.4,316.8,445.7,316.7z"/>
		<path class="st0" d="M265.6,840.4c7.4-8.6,14.4-16.8,21.7-24.8c1.8-2,4.4-3.6,7-4.3c5.5-1.4,9.5-4.4,12.5-9.1
			c1.8-2.8,4-5.3,6.6-7.8c0,5.9,2.2,11.5-2.8,17.1c-11.9,13.4-23.3,27.3-35.3,41.6C271.9,848.7,268.9,844.7,265.6,840.4z"/>
		<path class="st0" d="M718.5,149c3.4,4.5,6.4,8.3,9.7,12.6c-8,9.1-15.9,18.2-23.9,27.3c-0.4,0.5-1.2,0.7-1.8,0.8
			c-9.3,1.4-14.5,8.1-19.3,15.2c-0.7,1.1-1.7,1.9-3.2,3.6c-0.1-7.3-1.4-13.3,3.9-19.1C695.7,176.6,706.7,163,718.5,149z"/>
		<path class="st0" d="M167.4,883.6c11.6-2.9,22.5-5.7,34.6-8.8c-10.3,14.7-19.9,28.3-30.2,43.1
			C170.2,905.5,168.8,894.4,167.4,883.6z"/>
		<path class="st0" d="M828.4,83.7c1.4,10.9,2.8,21.9,4.1,32.7c-11.2,2.9-22.3,5.7-34.6,8.8c10.2-14.6,19.7-28.1,29.2-41.7
			C827.6,83.6,828,83.6,828.4,83.7z"/>
		<path class="st0" d="M205.8,873.6c11.5-2.9,22.1-5.5,33.2-8.3c1.6,11.3,3.1,22.2,4.8,34.4C230.6,890.8,218.7,882.5,205.8,873.6z"
			/>
		<path class="st0" d="M794.2,126.3c-11.6,2.9-22.2,5.6-33.2,8.3c-1.6-11.3-3.1-22.2-4.8-34.4C769.4,109.2,781.3,117.5,794.2,126.3z
			"/>
		<path class="st0" d="M792.6,50.9c10.1-2.2,20.2-4.5,30.6-6.8c1.4,10.7,2.7,20.9,4.2,32.3C815,67.9,803.5,60,792,52.2
			C792.2,51.8,792.4,51.3,792.6,50.9z"/>
		<path class="st0" d="M172.5,923.1c12.6,8.8,24,16.8,36.5,25.5c-11.4,2.6-21.5,4.8-32.1,7.3C175.3,945.1,174,934.9,172.5,923.1z"/>
		<path class="st0" d="M725.1,181.1c2.4-3.6,4.5-6.6,6.8-10.1c11.3,7.7,22.3,15.3,33.8,23.2c-2.6,3.6-5,7-7.6,10.7
			C746.9,196.8,736.2,189.1,725.1,181.1z"/>
		<path class="st0" d="M278.8,806.3c-2.8,4-5,7.3-7.5,10.9c-11-7.8-21.8-15.5-32.9-23.4c2.5-3.4,4.7-6.5,7.2-10.1
			C256.7,791.3,267.6,798.7,278.8,806.3z"/>
		<path class="st0" d="M268.8,820.9c-2.3,3.5-4.4,6.6-6.7,10.1c-11.3-7.7-22.3-15.3-33.8-23.2c2.5-3.6,4.9-6.9,7.6-10.7
			C246.9,805.1,257.7,812.9,268.8,820.9z"/>
		<path class="st0" d="M715.1,195.7c2.7-4,4.9-7.3,7.4-11c11,7.8,21.8,15.5,33,23.4c-2.5,3.5-4.8,6.7-7.3,10.1
			C737,210.6,726.2,203.3,715.1,195.7z"/>
		<path class="st0" d="M775,181.4c-2.6,3.6-5,6.8-7.5,10.2c-11-8.3-21.7-16.3-32.9-24.8c1.9-2.9,3.7-5.5,5.7-8.7
			C751.9,165.9,763.2,173.5,775,181.4z"/>
		<path class="st0" d="M253.6,843.8c-11.8-7.9-23.1-15.5-34.7-23.3c2.5-3.4,4.8-6.6,7.5-10.3c11,8.3,21.8,16.5,32.9,24.8
			C257.3,838.1,255.6,840.7,253.6,843.8z"/>
		<path class="st0" d="M754.5,88.6c-0.9-8.3-2-16.7-2.7-25c-0.1-1.2,1-3.5,1.9-3.7c8.3-2.1,16.7-3.8,26.5-6
			c-8.6,12.3-16.5,23.6-24.3,34.8C755.5,88.6,755,88.6,754.5,88.6z"/>
		<path class="st0" d="M245.4,911.4c1,8.6,2.1,17.2,2.9,25.9c0.1,0.9-0.9,2.7-1.7,2.9c-8.5,2-17,3.8-26.9,6
			c8.7-12.4,16.6-23.6,24.4-34.9C244.6,911.2,245,911.3,245.4,911.4z"/>
		<path class="st0" d="M281.1,803c-11-7.6-21.5-14.8-32.3-22.3c2.3-3,4.4-5.7,6.9-9c10.5,7.3,21,14.5,31.8,22
			C285.2,796.8,283.3,799.7,281.1,803z"/>
		<path class="st0" d="M435.1,277c0-6.8,0-13.2,0-20c6.8,0,13.3,0,20.7,0c0,6.5,0,13.1,0,20C448.8,277,442.3,277,435.1,277z"/>
		<path class="st0" d="M558.6,745.1c-6.9,0-13.5,0-20.7,0c0-6.7,0-13.2,0-20c7,0,13.7,0,20.7,0C558.6,731.7,558.6,738.1,558.6,745.1
			z"/>
		<path class="st0" d="M712.9,199c10.9,7.5,21.4,14.8,32.3,22.3c-2.3,3-4.4,5.7-6.9,9c-10.6-7.3-21-14.5-31.8-22
			C708.7,205.1,710.7,202.2,712.9,199z"/>
		<path class="st0" d="M747.9,118.9c1,5.6,1.8,10.3,2.5,14.9c0.1,0.7-0.2,1.7-0.6,2.3c-5.1,7.3-10.2,14.5-15.3,21.6
			c-0.6-0.2-1-0.3-1.2-0.5c-6.8-7.9-6.8-7.9-1-16.3C737.3,133.8,742.4,126.7,747.9,118.9z"/>
		<path class="st0" d="M524.3,357.9c-4-5.1-7.7-9.8-11.6-14.8c3.6-4.5,7.1-8.8,11.1-13.8c3.6,4.7,7.1,9,10.4,13.5
			c0.4,0.5,0.2,2-0.2,2.6C530.9,349.6,527.8,353.6,524.3,357.9z"/>
		<path class="st0" d="M743.2,312c-3.6,4.6-7.1,9.1-10.9,14c-4-5.1-7.8-9.9-11.6-14.8c3.7-4.6,7.2-8.9,11.1-13.7
			C735.8,302.5,739.4,307.1,743.2,312z"/>
		<path class="st0" d="M252.7,741c3.6-4.6,7-9,10.9-13.9c3.9,5,7.6,9.6,11.7,14.7c-3.6,4.5-7.2,9-11.1,13.8
			C260.1,750.5,256.5,745.8,252.7,741z"/>
		<path class="st0" d="M250.7,690c3.6-4.7,7-9,10.9-14c4,5,7.7,9.8,11.6,14.8c-3.6,4.5-7.2,8.9-11.1,13.8
			C258.2,699.7,254.6,695,250.7,690z"/>
		<path class="st0" d="M481.2,658.8c-3.7,4.6-7.3,9-11.1,13.7c-3.9-5-7.6-9.7-11.4-14.6c3.6-4.6,7-9,10.9-14
			C473.5,649.1,477.3,653.9,481.2,658.8z"/>
		<path class="st0" d="M729.8,246.5c4.1,5.2,7.6,9.8,11.4,14.6c-3.6,4.6-7,9-10.8,13.9c-4-5-7.8-9.8-11.7-14.7
			C722.4,255.7,725.9,251.4,729.8,246.5z"/>
		<path class="st0" d="M663,331.1c6.9,1.5,8.2,8.6,13.1,12.5c-3.7,4.8-7.1,9.2-11.1,14.3c-3.7-4.7-7.2-9-10.4-13.5
			c-0.5-0.8-0.1-2.9,0.6-3.8C657.6,337.3,660.4,334.2,663,331.1z"/>
		<path class="st0" d="M318,658c3.6-4.6,7-9,10.8-13.9c3.7,4.6,7.2,8.8,10.3,13.2c0.6,0.9,0,3.1-0.7,4.2c-1.8,2.8-4.2,5.2-6.1,7.9
			c-2.1,2.9-4.2,1.1-5.5-0.2C323.7,665.8,321.1,661.9,318,658z"/>
		<path class="st0" d="M412.4,686c-4.3,5.2-8,9.7-12.1,14.7c-3.2-3.9-6.2-7.2-8.7-10.8c-0.6-0.9-0.3-3.2,0.4-4.3
			c2.9-4.4,6.2-8.5,9.7-13.2C405.3,677,408.8,681.4,412.4,686z"/>
		<path class="st0" d="M593.3,301.7c0.9,0.6,1.1,0.7,1.2,0.8c11.3,14.8,12.4,7-2.4,27c-3.5-4.5-7-8.8-10.6-13.4
			C585.5,311.2,589.3,306.5,593.3,301.7z"/>
		<path class="st0" d="M430.6,564.1c-3,4.2-5.6,7.7-8.3,11.5c-12.2-11.2-29-11.4-42.5-19.6C396.4,558.7,413,561.4,430.6,564.1z"/>
		<path class="st0" d="M377.3,638.4c-3.8,5.3-7,10.1-10.5,14.7c-0.6,0.8-2.8,1.5-3.1,1.1c-1.5-1.5-3.5-3.4-3.7-5.3
			c-0.5-5.9-0.2-11.9-0.2-18.8C365.8,632.9,371.2,635.5,377.3,638.4z"/>
		<path class="st0" d="M630.2,346.6c6.9,8.1,2.1,16.7,4.3,25.5c-6.1-2.9-11.1-5.3-16.8-8C621.8,358.4,625.6,353,630.2,346.6z"/>
		<path class="st0" d="M251.7,875c-6.5-13,3.3-20.1,9-28.8c6.7,5.5,6.9,6.4,2,13.1C259.1,864.4,255.5,869.6,251.7,875z"/>
		<path class="st0" d="M594.9,438.7c-10.3,5.6-20.4-0.3-31.7-0.6c3.1-4.3,5.7-7.9,7.7-10.7C579.2,431.3,587.1,435,594.9,438.7z"/>
		<path class="st0" d="M477,265.4c-5,4.5-9.6,8.6-14.8,13.3c0-9.1,0-17.1,0-26.4C467.4,256.9,472.1,261,477,265.4z"/>
		<path class="st0" d="M446.2,238c5,4.4,9.7,8.6,15.1,13.4c-10.2,0-19.4,0-29.6,0C436.7,246.7,441.2,242.6,446.2,238z"/>
		<path class="st0" d="M532.4,750.6c10.5,0,19.7,0,30,0c-5.2,4.8-9.7,8.8-14.7,13.4C542.9,759.8,538.1,755.6,532.4,750.6z"/>
		<path class="st0" d="M516.8,736.6c5.1-4.6,9.6-8.6,14.8-13.2c0,9.1,0,17.2,0,26.3C526.4,745.1,521.8,741,516.8,736.6z"/>
		<path class="st0" d="M399.5,785.4c3.9,5,7.2,8.9,10.2,13c0.6,0.9,0.7,2.9,0.1,3.7c-3,4.1-6.4,8-10.3,12.7
			C399.5,804.8,399.5,795.7,399.5,785.4z"/>
		<path class="st0" d="M429.2,278.5c-5-4.3-9.4-8.2-14.3-12.4c4.7-4.2,9.2-8.2,14.3-12.8C429.2,262,429.2,269.8,429.2,278.5z"/>
		<path class="st0" d="M594.5,186.9c0,10.5,0,19.5,0,30c-4.4-5.6-8-10.1-12-15.1C586.2,197.1,589.9,192.5,594.5,186.9z"/>
		<path class="st0" d="M454,216.8c0-10.4,0-19.5,0-29.8c4.4,5.4,8.1,9.9,12,14.6C462.2,206.5,458.5,211.1,454,216.8z"/>
		<path class="st0" d="M564.9,723.6c4.9,4.3,9.3,8.1,14,12.2c-4.6,4.1-9,8.1-14,12.6C564.9,739.9,564.9,732.2,564.9,723.6z"/>
		<path class="st0" d="M539.7,785.4c0,10.3,0,19.1,0,29.4c-4.3-5.3-8-9.7-11.8-14.5C531.7,795.6,535.3,791,539.7,785.4z"/>
		<path class="st0" d="M560.6,719.8c-9.2,0-17.5,0-25.8,0c-0.2-0.4-0.3-0.7-0.5-1.1c4.2-3.1,8.4-6.2,12.7-9.1
			c0.5-0.4,2.1,0.3,2.9,0.9C553.3,713.4,556.6,716.4,560.6,719.8z"/>
		<path class="st0" d="M445.8,293.1c-4-3.5-8-7-12.5-10.9c9.3,0,17.6,0,25.9,0c0.1,0.3,0.3,0.7,0.4,1
			C455.2,286.4,450.6,289.7,445.8,293.1z"/>
		<path class="st0" d="M226.4,858.8c4.5-6.2,8.7-12,13.1-18.2c2.2,1.9,4.1,3.4,5.9,4.9C241,852.6,237.4,860.3,226.4,858.8z"/>
		<path class="st0" d="M370.2,316.1c-3.4,4.3-6.4,8.1-10.2,12.8c0-8.8,0-16.5,0-25.3C363.7,308.1,366.8,311.9,370.2,316.1z"/>
		<path class="st0" d="M633.8,616.5c0,9.2,0,16.9,0,25.7c-3.6-4.6-6.7-8.4-10.1-12.7C626.9,625.6,629.9,621.7,633.8,616.5z"/>
		<path class="st0" d="M633.8,698.4c-3.7-4.5-6.8-8.3-10.2-12.4c3.2-4.1,6.4-8.1,10.2-12.9C633.8,681.8,633.8,689.5,633.8,698.4z"/>
		<path class="st0" d="M754.4,161.4c-1.5-1.4-2.5-2.2-3.7-3.3c0.9-1.4,1.7-2.8,2.6-4.1c8.5-11.6,8.5-11.6,15.1-12.1
			C763.6,148.4,759.2,154.7,754.4,161.4z"/>
		<path class="st0" d="M536.6,407.3c-5.1-6.9-9.9-13.2-14.6-19.6c0.2-0.2,0.4-0.5,0.6-0.7c6,4.8,11.9,9.5,18.1,14.5
			C539.3,403.4,538.1,405.1,536.6,407.3z"/>
		<path class="st0" d="M453.2,600.5c1.5-2.1,2.6-3.7,4.1-5.8c5.2,6.9,10,13.4,14.7,19.8c-0.2,0.2-0.4,0.4-0.7,0.6
			C465.4,610.4,459.5,605.6,453.2,600.5z"/>
		<path class="st0" d="M569.8,665.2c0.8-4,1.4-7.1,2.1-10.5C576.8,659,576.5,660.1,569.8,665.2z"/>
		<path class="st0" d="M424.1,336.4c-0.8,4.2-1.4,7.4-2,10.8C417,343.3,417.1,343,424.1,336.4z"/>
		<path class="st0" d="M524.8,141c4.9,6.3,9.5,11.9,13.9,17.8c0.7,0.9,0.8,3,0.2,3.8c-4.2,5.7-8.7,11.3-13.4,17.3
			c-5.5-6.9-10.6-13.3-15.9-20.1C514.6,153.7,519.5,147.6,524.8,141z"/>
		<path class="st0" d="M536.2,287c-3.6,4.7-7.1,9.1-10.9,14c-4-5.1-7.8-9.9-11.6-14.8c3.7-4.6,7.2-8.9,11.1-13.7
			C528.8,277.6,532.4,282.2,536.2,287z"/>
		<path class="st0" d="M525.3,243.5c-3.9-5-7.6-9.7-11.7-14.8c3.6-4.5,7.2-8.9,11.1-13.8c3.6,4.6,6.9,8.7,10,12.9
			c0.5,0.8,0.5,2.6,0,3.4C531.9,235.3,528.7,239.2,525.3,243.5z"/>
		<path class="st0" d="M469,861c-5.3-6.8-10.4-13.2-15.6-19.9c4.9-6.3,9.7-12.4,14.9-19.1c5.1,6.4,10,12.4,14.6,18.6
			c0.6,0.8,0,3.1-0.8,4.2C478,850.1,473.7,855.2,469,861z"/>
		<path class="st0" d="M480.2,773.3c-3.6,4.5-7.1,8.8-11.1,13.7c-3.8-4.9-7.5-9.5-11.5-14.5c3.5-4.6,7-9.1,10.9-14
			C472.6,763.6,476.3,768.3,480.2,773.3z"/>
		<path class="st0" d="M480.2,715.8c-3.8,4.7-7.3,9-11.1,13.7c-3.8-4.9-7.5-9.5-11.4-14.5c3.6-4.6,7-9.1,10.9-14
			C472.6,706.2,476.3,710.8,480.2,715.8z"/>
	</g>
</g>
</svg>
