<?xml version="1.0" encoding="utf-8"?>
<!-- Generator: Adobe Illustrator 21.1.0, SVG Export Plug-In . SVG Version: 6.00 Build 0)  -->
<svg version="1.1" xmlns="http://www.w3.org/2000/svg" xmlns:xlink="http://www.w3.org/1999/xlink" x="0px" y="0px"
	 viewBox="0 0 144 144" style="enable-background:new 0 0 144 144;" xml:space="preserve">
<style type="text/css">
	.st0{display:none;}
	.st1{display:inline;fill:#FFFFFF;}
	.st2{fill:#FFFFFF;stroke:#FFFFFF;stroke-linecap:round;stroke-linejoin:round;stroke-miterlimit:10;}
	.st3{display:inline;fill:#FFFFFF;stroke:#FFFFFF;stroke-linecap:round;stroke-linejoin:round;stroke-miterlimit:10;}
</style>
<g id="_x31__1_" class="st0">
	<polygon class="st1" points="9,18 135,18 99,54 81,36 63,36 45,54 	"/>
	<polygon class="st1" points="135,126 9,126 45,90 63,108 81,108 99,90 	"/>
</g>
<g id="_x31_1_1_">
	<path class="st2" d="M72,27L9,72l63,45l63-45L72,27z M27,72l45-18l45,18l-45,36L27,72z"/>
	<polygon class="st2" points="72,99 54,81 54,45 72,27 90,45 90,81 	"/>
</g>
<g id="_x31_2" class="st0">
	<polygon class="st3" points="18,90 36,72 108,72 126,90 99,117 72,90 72,90 45,117 	"/>
	<rect x="49" y="40" transform="matrix(0.7071 -0.7071 0.7071 0.7071 -17.8675 55.864)" class="st3" width="19.1" height="19.1"/>
	<rect x="76" y="40" transform="matrix(0.7071 -0.7071 0.7071 0.7071 -9.9594 74.9558)" class="st3" width="19.1" height="19.1"/>
	
		<rect x="101.6" y="29.6" transform="matrix(0.7071 -0.7071 0.7071 0.7071 6.1766 86.9117)" class="st3" width="12.7" height="12.7"/>
	<rect x="29.6" y="29.6" transform="matrix(0.7071 -0.7071 0.7071 0.7071 -14.9117 36)" class="st3" width="12.7" height="12.7"/>
</g>
<g id="_x31_3" class="st0">
	<polygon class="st3" points="72,54 63,72 72,90 81,72 	"/>
	<polygon class="st3" points="72,9 36,72 45,81 54,90 60,90 54,72 72,36 90,72 84,90 90,90 99,81 108,72 	"/>
	<polygon class="st3" points="36,81 54,99 90,99 108,81 126,126 18,126 	"/>
</g>
<g id="_x31_4" class="st0">
	<polygon class="st3" points="18,72 45,99 72,72 99,45 126,72 99,54 45,90 	"/>
	<polygon class="st3" points="27,72 45,81 63,72 45,63 	"/>
	<polygon class="st3" points="81,72 99,81 117,72 99,63 	"/>
	<polygon class="st3" points="81,81 99,90 117,81 99,99 	"/>
	<polygon class="st3" points="27,63 45,54 63,63 45,45 	"/>
	<polygon class="st3" points="72,117 90,126 117,108 90,135 	"/>
	<polygon class="st3" points="72,117 54,126 27,108 54,135 	"/>
	<polygon class="st3" points="72,27 54,18 27,36 54,9 	"/>
	<polygon class="st3" points="72,27 90,18 117,36 90,9 	"/>
</g>
</svg>
