<?xml version="1.0" encoding="utf-8"?>
<!-- Generator: Adobe Illustrator 21.1.0, SVG Export Plug-In . SVG Version: 6.00 Build 0)  -->
<svg version="1.1" xmlns="http://www.w3.org/2000/svg" xmlns:xlink="http://www.w3.org/1999/xlink" x="0px" y="0px"
	 viewBox="0 0 90 90" style="enable-background:new 0 0 90 90;" xml:space="preserve">
<style type="text/css">
	.st0{display:none;}
	
		.st1{display:inline;fill:#FFFFFF;stroke:#FFFFFF;stroke-width:0.5;stroke-linecap:round;stroke-linejoin:round;stroke-miterlimit:10;}
	.st2{fill:#FFFFFF;stroke:#FFFFFF;stroke-width:0.5;stroke-linecap:round;stroke-linejoin:round;stroke-miterlimit:10;}
</style>
<g id="Heart" class="st0">
	<polygon class="st1" points="36,27 18,18 9,36 45,72 63,54 45,36 	"/>
	<polygon class="st1" points="54,27 72,45 81,36 72,18 	"/>
</g>
<g id="Fire">
	<polygon class="st2" points="40.5,81 22.5,63 31.5,45 40.5,9 58.5,45 49.5,63 	"/>
	<polygon class="st2" points="58.5,54 49.5,72 49.5,81 58.5,72 67.5,45 58.5,54 	"/>
</g>
<g id="Cut" class="st0">
	<polygon class="st1" points="297.5,81 324.5,36 369.5,9 333.5,45 	"/>
	<polygon class="st1" points="315.5,72 360.5,27 342.5,54 	"/>
	<polygon class="st1" points="9,81 36,36 81,9 45,45 	"/>
	<polygon class="st1" points="27,72 72,27 54,54 	"/>
</g>
<g id="Poison" class="st0">
</g>
</svg>
