<?xml version="1.0" encoding="utf-8"?>
<!-- Generator: Adobe Illustrator 21.1.0, SVG Export Plug-In . SVG Version: 6.00 Build 0)  -->
<svg version="1.1" xmlns="http://www.w3.org/2000/svg" xmlns:xlink="http://www.w3.org/1999/xlink" x="0px" y="0px"
	 viewBox="0 0 90 90" style="enable-background:new 0 0 90 90;" xml:space="preserve">
<style type="text/css">
	.st0{display:none;}
	
		.st1{display:inline;fill:#FFFFFF;stroke:#FFFFFF;stroke-width:0.5;stroke-linecap:round;stroke-linejoin:round;stroke-miterlimit:10;}
	.st2{fill:#FFFFFF;stroke:#FFFFFF;stroke-linecap:round;stroke-linejoin:round;stroke-miterlimit:10;}
</style>
<g id="Heart" class="st0">
	<polygon class="st1" points="36,27 18,18 9,36 45,72 63,54 45,36 	"/>
	<polygon class="st1" points="54,27 72,45 81,36 72,18 	"/>
</g>
<g id="Fire" class="st0">
	<polygon class="st1" points="40.5,81 22.5,63 31.5,45 40.5,9 58.5,45 49.5,63 	"/>
	<polygon class="st1" points="58.5,54 49.5,72 49.5,81 58.5,72 67.5,45 58.5,54 	"/>
</g>
<g id="Cut" class="st0">
	<polygon class="st1" points="297.5,81 324.5,36 369.5,9 333.5,45 	"/>
	<polygon class="st1" points="315.5,72 360.5,27 342.5,54 	"/>
	<polygon class="st1" points="9,81 36,36 81,9 45,45 	"/>
	<polygon class="st1" points="27,72 72,27 54,54 	"/>
</g>
<g id="Poison">
	<polygon class="st2" points="9,63 27,81 63,81 81,63 63,54 45,72 36,63 27,72 	"/>
	
		<rect x="20.6" y="38.6" transform="matrix(0.7071 -0.7071 0.7071 0.7071 -23.9117 32.2721)" class="st2" width="12.7" height="12.7"/>
	<rect x="64.3" y="28.3" transform="matrix(0.7071 -0.7071 0.7071 0.7071 -2.5036 56.9558)" class="st2" width="6.4" height="6.4"/>
	<rect x="37.3" y="10.3" transform="matrix(0.7071 -0.7071 0.7071 0.7071 2.3162 32.5919)" class="st2" width="6.4" height="6.4"/>
</g>
</svg>
