<?xml version="1.0" encoding="utf-8"?>
<!-- Generator: Adobe Illustrator 22.1.0, SVG Export Plug-In . SVG Version: 6.00 Build 0)  -->
<svg version="1.1" xmlns="http://www.w3.org/2000/svg" xmlns:xlink="http://www.w3.org/1999/xlink" x="0px" y="0px"
	 viewBox="0 0 100 100" style="enable-background:new 0 0 100 100;" xml:space="preserve">
<style type="text/css">
	.st0{display:none;}
	
		.st1{display:inline;fill:#FFFFFF;stroke:#FFFFFF;stroke-width:2;stroke-linecap:round;stroke-linejoin:round;stroke-miterlimit:10;}
	.st2{display:inline;fill:none;stroke:#FFFFFF;stroke-width:2;stroke-linecap:round;stroke-linejoin:round;stroke-miterlimit:10;}
	.st3{fill:#FFFFFF;stroke:#FFFFFF;stroke-width:2;stroke-linecap:round;stroke-linejoin:round;stroke-miterlimit:10;}
	.st4{display:inline;}
</style>
<g id="Cut" class="st0">
	<rect x="9" y="72" class="st1" width="18" height="18"/>
	<polygon class="st1" points="45,54 27,54 72,9 90,9 90,27 45,72 	"/>
</g>
<g id="Poison" class="st0">
	<polygon class="st1" points="9,90 9,72 27,90 	"/>
	<polygon class="st1" points="27,72 27,54 54,27 72,27 72,45 45,72 	"/>
	<line class="st1" x1="90" y1="9" x2="72" y2="27"/>
</g>
<g id="Burn" class="st0">
	<polygon class="st1" points="9,72 27,90 27,72 	"/>
	<polygon class="st1" points="45,54 27,54 54,27 72,27 72,45 45,72 	"/>
	<polyline class="st2" points="72,9 90,9 90,27 	"/>
</g>
<g id="Heal" class="st0">
	<rect x="29.3" y="69.8" class="st1" width="40.5" height="20.3"/>
	<polygon class="st1" points="49.5,29.3 29.3,9 9,29.3 49.5,69.8 90,29.3 69.8,9 	"/>
</g>
<g id="Attack">
	<g>
		<polygon class="st3" points="32,90.5 68,90.5 50,63.5 		"/>
		<polygon class="st3" points="23,90.5 5,90.5 50,9.5 95,90.5 77,90.5 50,45.5 		"/>
	</g>
</g>
<g id="Monster" class="st0">
	<g class="st4">
		<polygon class="st3" points="14,90.5 32,72.5 50,90.5 		"/>
		<polygon class="st3" points="86,90.5 68,72.5 50,90.5 		"/>
		<polygon class="st3" points="14,9.5 32,27.5 50,9.5 		"/>
		<polygon class="st3" points="86,9.5 50,9.5 68,27.5 		"/>
		<rect x="34.1" y="34.1" transform="matrix(0.7071 -0.7071 0.7071 0.7071 -20.7107 50)" class="st3" width="31.8" height="31.8"/>
	</g>
</g>
</svg>
