<?xml version="1.0" encoding="utf-8"?>
<!-- Generator: Adobe Illustrator 22.1.0, SVG Export Plug-In . SVG Version: 6.00 Build 0)  -->
<svg version="1.1" xmlns="http://www.w3.org/2000/svg" xmlns:xlink="http://www.w3.org/1999/xlink" x="0px" y="0px"
	 viewBox="0 0 100 100" style="enable-background:new 0 0 100 100;" xml:space="preserve">
<style type="text/css">
	.st0{display:none;}
	
		.st1{display:inline;fill:#FFFFFF;stroke:#FFFFFF;stroke-width:2;stroke-linecap:round;stroke-linejoin:round;stroke-miterlimit:10;}
	.st2{fill:#FFFFFF;stroke:#FFFFFF;stroke-width:2;stroke-linecap:round;stroke-linejoin:round;stroke-miterlimit:10;}
	.st3{fill:none;stroke:#FFFFFF;stroke-width:2;stroke-linecap:round;stroke-linejoin:round;stroke-miterlimit:10;}
</style>
<g id="Cut" class="st0">
	<rect x="9" y="72" class="st1" width="18" height="18"/>
	<polygon class="st1" points="45,54 27,54 72,9 90,9 90,27 45,72 	"/>
</g>
<g id="Poison" class="st0">
	<polygon class="st1" points="9,90 9,72 27,90 	"/>
	<polygon class="st1" points="27,72 27,54 54,27 72,27 72,45 45,72 	"/>
	<line class="st1" x1="90" y1="9" x2="72" y2="27"/>
</g>
<g id="Burn">
	<polygon class="st2" points="9,72 27,90 27,72 	"/>
	<polygon class="st2" points="45,54 27,54 54,27 72,27 72,45 45,72 	"/>
	<polyline class="st3" points="72,9 90,9 90,27 	"/>
</g>
</svg>
